<?xml version="1.0" encoding="utf-8"?>
<!-- Generator: Adobe Illustrator 17.0.0, SVG Export Plug-In . SVG Version: 6.00 Build 0)  -->
<!DOCTYPE svg PUBLIC "-//W3C//DTD SVG 1.1//EN" "http://www.w3.org/Graphics/SVG/1.1/DTD/svg11.dtd">
<svg version="1.1" id="Layer_1" xmlns="http://www.w3.org/2000/svg" xmlns:xlink="http://www.w3.org/1999/xlink" x="0px" y="0px"
	 width="49px" height="48.667px" viewBox="0 0 49 48.667" enable-background="new 0 0 49 48.667" xml:space="preserve">
<g>
	<g>
		<path fill="#FFFFFF" d="M49,40.163c0,4.677-3.827,8.504-8.504,8.504H8.504C3.827,48.667,0,44.84,0,40.163V8.504
			C0,3.827,3.827,0,8.504,0h31.992C45.173,0,49,3.827,49,8.504V40.163z"/>
	</g>
	<g>
		<g>
			<g>
				<path fill="#273339" d="M9.831,14.073c0.152-0.402,0.386-0.76,0.603-1.127c0.333-0.565,0.7-1.108,1.103-1.626
					c0.039-0.052,0.083-0.1,0.117-0.155c0.301-0.386,0.609-0.765,0.95-1.117c0.054-0.063,0.114-0.122,0.164-0.189
					c0.235-0.236,0.47-0.471,0.706-0.707c0.084-0.058,0.15-0.138,0.229-0.202c0.069-0.066,0.138-0.132,0.207-0.197
					c0.054-0.034,0.101-0.077,0.148-0.119c0.622-0.551,1.287-1.047,1.986-1.495c0.326-0.209,0.66-0.405,0.99-0.606
					c0.047-0.03,0.101-0.045,0.148-0.073c0.122-0.068,0.244-0.135,0.366-0.203c0.077-0.045,0.157-0.083,0.242-0.111
					c0.275-0.132,0.55-0.263,0.825-0.395c0.095-0.037,0.184-0.089,0.284-0.116l-0.004,0.003c0.061-0.047,0.137-0.056,0.206-0.083
					c0.102-0.043,0.204-0.086,0.306-0.128c0.068-0.02,0.134-0.047,0.202-0.069l-0.003,0.002c0.072-0.052,0.16-0.056,0.241-0.084
					c0.048,0.013,0.079-0.022,0.114-0.044c0.241-0.081,0.478-0.177,0.727-0.23c0.055,0.011,0.1-0.011,0.142-0.044
					c0.093-0.03,0.188-0.051,0.282-0.076l-0.003,0.002c0.274-0.085,0.552-0.156,0.836-0.201c0.119-0.011,0.239-0.023,0.348-0.078
					c0.423-0.087,0.848-0.164,1.279-0.197c0.01,0.008,0.019,0.007,0.026-0.003c0.104-0.052,0.221,0.011,0.325-0.037
					c0.011,0.007,0.021,0.006,0.031-0.003c0.121-0.049,0.251,0.008,0.372-0.035l0.011,0.007l0.011-0.007
					c0.248-0.071,0.505-0.05,0.757-0.057c0.673-0.019,1.347-0.012,2.02,0.037c0.012,0.001,0.022,0.013,0.033,0.02l0.011,0.007
					l0.012-0.007c0.134,0.046,0.278-0.019,0.41,0.038l-0.002-0.001c0.102,0.049,0.217-0.012,0.319,0.036
					c0.021,0.002,0.042,0.004,0.063,0.006c0.484,0.052,0.965,0.126,1.439,0.235l-0.002-0.001c0.06,0.046,0.141-0.011,0.199,0.041
					l-0.002-0.001c0.059,0.047,0.143-0.015,0.199,0.045L29.8,4.724c0.16,0.038,0.328,0.047,0.476,0.13
					c0.142,0.039,0.277,0.108,0.43,0.106C30.8,4.99,30.901,4.998,30.99,5.043l-0.004-0.003c0.081,0.027,0.174,0.02,0.239,0.088
					c0.19,0.075,0.379,0.152,0.581,0.19c0.11,0.042,0.235,0.048,0.328,0.133c0.124,0.057,0.245,0.124,0.383,0.144
					c0.103,0.031,0.207,0.058,0.289,0.134c0.05,0.027,0.095,0.066,0.157,0.061c0.063,0.04,0.152,0.025,0.199,0.097
					c0.259,0.127,0.518,0.254,0.777,0.381c0.077,0.03,0.153,0.063,0.214,0.121c0.427,0.261,0.859,0.516,1.281,0.785
					c0.522,0.332,0.997,0.729,1.486,1.106c0.057,0.037,0.114,0.076,0.158,0.13c0.03,0.047,0.066,0.086,0.119,0.107
					c0.058,0.038,0.117,0.075,0.157,0.133c0.087,0.093,0.257,0.205,0.241,0.275c-0.026,0.115-0.171,0.205-0.268,0.302
					c-1.507,1.507-3.014,3.014-4.521,4.521c-0.197,0.197-0.197,0.197-0.4-0.013c-0.047-0.044-0.099-0.083-0.15-0.122
					c-0.584-0.511-1.235-0.925-1.911-1.301c-0.113-0.058-0.227-0.112-0.344-0.163c-0.185-0.078-0.37-0.155-0.555-0.233
					c-0.061-0.037-0.132-0.047-0.195-0.078c-0.21-0.066-0.421-0.132-0.631-0.198c-0.091-0.036-0.189-0.045-0.279-0.082
					c-0.247-0.053-0.493-0.106-0.74-0.159c-0.077-0.046-0.172,0.019-0.246-0.043l0.003,0.003c-1.062-0.144-2.124-0.149-3.186-0.001
					l-0.012-0.004l-0.01,0.009c-0.074,0.05-0.165-0.011-0.239,0.039l0.001,0c-0.061,0.048-0.141-0.006-0.203,0.039
					c-0.121,0.006-0.24,0.02-0.35,0.078c-0.203,0.046-0.401,0.114-0.605,0.158c-0.555,0.169-1.099,0.366-1.611,0.642
					c-0.122,0.064-0.244,0.129-0.37,0.187c-0.609,0.311-1.167,0.702-1.692,1.134c-1.592,1.31-2.722,2.949-3.408,4.893
					c-0.009,0.025-0.021,0.048-0.032,0.072c-0.083,0.021-0.135-0.034-0.192-0.078c-1.797-1.386-3.584-2.785-5.379-4.173
					C9.977,14.28,9.823,14.241,9.831,14.073z"/>
				<path fill="#273339" d="M27.62,39.831l-0.015-0.005l-0.014,0.007c-0.147,0.054-0.303-0.01-0.45,0.037
					c-0.021,0-0.042,0.001-0.063,0.001c-0.575,0.056-1.152,0.079-1.73,0.052c-0.281-0.013-0.564,0.007-0.842-0.052
					c-0.022-0.001-0.043-0.001-0.065-0.002c-0.133-0.047-0.276,0.016-0.409-0.036l-0.014-0.007l-0.015,0.004
					c-0.105-0.046-0.222,0.014-0.327-0.036l-0.011-0.009l-0.013,0.005c-0.283-0.029-0.566-0.057-0.844-0.12l0.003,0.003
					c-0.075-0.046-0.168,0.017-0.241-0.041l0.003,0.002c-0.062-0.043-0.142,0.01-0.203-0.038c-0.137-0.01-0.273-0.029-0.403-0.077
					c-0.126-0.042-0.257-0.054-0.387-0.076c-0.325-0.081-0.651-0.162-0.976-0.244c-0.119-0.097-0.275-0.102-0.41-0.159
					c-0.228-0.067-0.456-0.133-0.673-0.233c-0.062-0.034-0.13-0.05-0.195-0.074c-0.145-0.029-0.274-0.097-0.403-0.163
					c-0.058-0.04-0.131-0.045-0.191-0.081c-0.153-0.052-0.304-0.11-0.442-0.196c-0.103-0.051-0.21-0.094-0.308-0.155
					c-0.126-0.037-0.242-0.092-0.353-0.162c-0.063-0.044-0.133-0.076-0.2-0.111c-0.671-0.32-1.291-0.727-1.9-1.149
					c-0.543-0.376-1.067-0.779-1.552-1.231c-0.047-0.044-0.096-0.084-0.148-0.121c-0.082-0.078-0.164-0.157-0.246-0.235
					c-0.151-0.125-0.271-0.282-0.427-0.401c-0.011-0.011-0.022-0.022-0.033-0.033c-0.12-0.155-0.276-0.276-0.401-0.426
					c-0.078-0.082-0.157-0.164-0.235-0.246c-0.037-0.052-0.077-0.101-0.121-0.147c-1.013-1.129-1.856-2.373-2.535-3.729
					c-0.016-0.026-0.023-0.053-0.014-0.083c0.184-0.209,0.42-0.358,0.637-0.526c1.648-1.279,3.296-2.559,4.944-3.838
					c0.069-0.054,0.13-0.138,0.238-0.117c0.321,0.88,0.71,1.728,1.236,2.507c1.728,2.557,4.078,4.214,7.138,4.716
					c2.763,0.453,5.389-0.003,7.785-1.526c0.033-0.021,0.069-0.038,0.103-0.057c0.213,0.057,0.353,0.225,0.517,0.352
					c1.267,0.976,2.527,1.962,3.792,2.94c0.385,0.298,0.768,0.599,1.153,0.897c0.064,0.049,0.15,0.088,0.156,0.189
					c-0.015,0.022-0.03,0.044-0.045,0.066c-0.056,0.069-0.122,0.127-0.196,0.174c-0.04,0.035-0.08,0.07-0.119,0.105
					c-0.042,0.057-0.1,0.093-0.156,0.132c-0.159,0.128-0.317,0.256-0.476,0.384c-0.046,0.053-0.099,0.097-0.163,0.128
					c-0.674,0.506-1.389,0.948-2.128,1.352c-0.075,0.048-0.157,0.08-0.238,0.114c-0.302,0.144-0.605,0.288-0.907,0.432
					c-0.064,0.038-0.136,0.052-0.204,0.078l0.004-0.002c-0.06,0.046-0.136,0.052-0.202,0.084c-0.107,0.033-0.215,0.06-0.311,0.123
					c-0.07,0.027-0.14,0.055-0.214,0.072c-0.231,0.079-0.463,0.159-0.694,0.238c-0.137,0.043-0.271,0.092-0.413,0.118
					c-0.192,0.055-0.385,0.111-0.577,0.166c-0.239,0.049-0.475,0.109-0.715,0.153l0.003-0.002c-0.058,0.054-0.14-0.004-0.2,0.042
					l0.002-0.001c-0.063,0.049-0.145-0.001-0.21,0.038l-0.014-0.004l-0.013,0.008c-0.061,0.046-0.14-0.005-0.202,0.037l0.003-0.002
					c-0.38,0.072-0.763,0.125-1.148,0.161l0.002-0.001C27.869,39.849,27.738,39.783,27.62,39.831z"/>
				<path fill="#273339" d="M37.517,35.599c-1.542-1.199-3.085-2.397-4.626-3.597c-0.332-0.258-0.661-0.52-0.992-0.78
					c0.815-0.579,1.538-1.253,2.121-2.071c0.717-1.006,1.185-2.117,1.416-3.329c0.007-0.037,0.031-0.076-0.016-0.104
					c-0.074-0.041-0.155-0.02-0.233-0.02c-3.077-0.001-6.154-0.001-9.231-0.001c-0.275,0-0.242,0.026-0.242-0.243
					c-0.001-2.148,0-4.296,0-6.444c0-0.271,0-0.271,0.274-0.271c5.436,0,10.871,0,16.307,0.002c0.066,0,0.145-0.039,0.201,0.034
					c0.007,0.075-0.015,0.157,0.045,0.221c0.041,0.063-0.007,0.141,0.035,0.204c-0.005,0.011-0.004,0.022,0.003,0.033
					c0.042,0.065-0.002,0.145,0.035,0.211c-0.007,0.009-0.007,0.017,0.001,0.025c0.057,0.088-0.009,0.193,0.04,0.282l-0.002-0.003
					c0.061,0.358,0.095,0.718,0.119,1.08c0.003,0.036,0.006,0.071,0.009,0.107c0.026,0.158,0.014,0.318,0.032,0.476l-0.001-0.002
					c0.024,0.027,0.023,0.06,0.023,0.093c0,0.676,0,1.352,0,2.027c0,0.033,0.001,0.066-0.022,0.093l0-0.002
					c-0.025,0.171-0.003,0.345-0.034,0.516c-0.002,0.024-0.004,0.047-0.006,0.071c-0.027,0.373-0.057,0.746-0.12,1.116l0.002-0.003
					c-0.049,0.089,0.016,0.193-0.04,0.281c-0.008,0.008-0.008,0.017-0.001,0.026c-0.037,0.066,0.007,0.145-0.034,0.21
					c-0.05,0.164-0.087,0.331-0.084,0.504c-0.042,0.064,0.014,0.146-0.041,0.207l0.002-0.003c-0.044,0.06,0.015,0.143-0.043,0.2
					l0.003-0.003c-0.034,0.118-0.023,0.248-0.093,0.357c-0.061,0.262-0.122,0.523-0.184,0.785c-0.035,0.093-0.027,0.199-0.091,0.283
					c-0.537,1.798-1.316,3.48-2.399,5.017c-0.417,0.591-0.872,1.151-1.371,1.675c-0.058,0.061-0.113,0.127-0.169,0.19
					c-0.039,0.068-0.092,0.121-0.16,0.16C37.805,35.338,37.661,35.469,37.517,35.599z"/>
				<path fill="#273339" d="M15.637,25.582c-1.098,0.85-2.196,1.7-3.294,2.55c-0.838,0.649-1.676,1.297-2.514,1.946
					c-0.06,0.008-0.037-0.061-0.072-0.077c-0.195-0.361-0.367-0.734-0.51-1.119c-0.039-0.065-0.053-0.139-0.079-0.209
					c-0.072-0.136-0.123-0.279-0.166-0.426c-0.024-0.067-0.048-0.135-0.071-0.202l0.003,0.003c-0.054-0.065-0.048-0.153-0.086-0.224
					c-0.069-0.156-0.116-0.318-0.152-0.484c-0.046-0.135-0.092-0.269-0.12-0.409c-0.093-0.309-0.192-0.616-0.24-0.937
					c-0.033-0.12-0.052-0.244-0.077-0.366c-0.027-0.155-0.053-0.309-0.08-0.464c-0.093-0.468-0.154-0.941-0.2-1.415
					c-0.07-0.054,0.031-0.113-0.004-0.168c-0.013-0.145-0.067-0.286-0.036-0.434c0-0.013,0-0.026,0.001-0.04
					c-0.053-0.186,0.012-0.38-0.036-0.567c0-0.294,0-0.589,0-0.883c0.048-0.187-0.017-0.38,0.036-0.567c0-0.013,0-0.026,0-0.04
					c-0.046-0.149,0.029-0.289,0.036-0.434C8,20.557,7.91,20.492,7.982,20.435c0.029-0.404,0.085-0.804,0.16-1.201l-0.003,0.003
					c0.041-0.062-0.009-0.141,0.037-0.202c0.01-0.008,0.011-0.017,0.003-0.027c0.039-0.065-0.009-0.146,0.037-0.21
					c0.014-0.077,0.027-0.153,0.041-0.23c0.028-0.231,0.099-0.453,0.152-0.678c0.022-0.217,0.114-0.416,0.164-0.626
					c0.029-0.095,0.042-0.194,0.081-0.286c0.042-0.213,0.125-0.412,0.198-0.614c0.016-0.074,0.046-0.143,0.071-0.214
					c0.012-0.041-0.001-0.091,0.042-0.121c0.036-0.061,0.048-0.132,0.077-0.196c0.04-0.108,0.08-0.217,0.121-0.325
					c0.04-0.057,0.047-0.129,0.079-0.189c0.17-0.427,0.35-0.85,0.589-1.244c0.224,0.252,0.511,0.429,0.774,0.634
					c1.461,1.141,2.926,2.276,4.391,3.412c0.213,0.165,0.431,0.324,0.646,0.485c-0.244,0.766-0.423,1.545-0.512,2.346
					c-0.164,1.474-0.009,2.915,0.421,4.33C15.581,25.379,15.609,25.481,15.637,25.582z"/>
				<path fill="#273339" d="M42.496,18.774c-0.072-0.004-0.144-0.011-0.217-0.011c-5.429-0.001-10.857,0-16.286,0
					c-0.255,0-0.255,0-0.255,0.257c0,2.148,0.002,4.296-0.004,6.443c0,0.178,0.041,0.232,0.227,0.231
					c3.077-0.006,6.153-0.005,9.23-0.003c0.076,0,0.158-0.029,0.228,0.027c-3.156,0-6.312,0-9.467,0c-0.258,0-0.258,0-0.258-0.254
					c0-2.161,0-4.322,0-6.483c0-0.262,0.001-0.262,0.264-0.262c5.442,0,10.884,0,16.326,0.002
					C42.356,18.72,42.445,18.68,42.496,18.774z"/>
				<path fill="#273339" d="M24.173,11.358c0.706-0.141,1.419-0.154,2.135-0.118c0.353,0.018,0.706,0.033,1.051,0.119
					c-0.73-0.066-1.46-0.089-2.193-0.077C24.833,11.287,24.507,11.374,24.173,11.358z"/>
				<path fill="#273339" d="M27.158,4.328c-0.354-0.014-0.707-0.025-1.061-0.044c-0.584-0.03-1.166,0.042-1.749,0.044
					c0.123-0.065,0.255-0.084,0.392-0.084c0.662,0,1.324-0.001,1.986,0.001C26.874,4.246,27.02,4.265,27.158,4.328z"/>
				<path fill="#273339" d="M24.506,39.872c0.857,0.036,1.714,0.028,2.572,0c-0.177,0.068-0.367,0.074-0.55,0.078
					c-0.516,0.012-1.033,0.006-1.55,0.003C24.817,39.951,24.658,39.932,24.506,39.872z"/>
				<path fill="#273339" d="M42.813,23.621c0-0.738,0-1.475,0-2.213c0.06,0.042,0.042,0.106,0.043,0.162
					c0.001,0.629,0.001,1.259,0,1.888C42.855,23.515,42.872,23.579,42.813,23.621z"/>
				<path fill="#273339" d="M29.41,4.643c-0.48-0.078-0.959-0.157-1.439-0.235C28.46,4.424,28.942,4.492,29.41,4.643z"/>
				<path fill="#273339" d="M7.978,23.749c0.051,0.348,0.103,0.696,0.153,1.045c0.018,0.123,0.031,0.247,0.047,0.37
					c-0.112-0.266-0.104-0.555-0.159-0.833C7.98,24.14,7.967,23.945,7.978,23.749z"/>
				<path fill="#273339" d="M23.571,4.407c-0.426,0.066-0.853,0.132-1.279,0.197c0.234-0.103,0.489-0.115,0.735-0.158
					C23.205,4.416,23.387,4.38,23.571,4.407z"/>
				<path fill="#273339" d="M8.142,19.233c-0.053,0.4-0.106,0.801-0.16,1.201C7.976,20.026,8.024,19.625,8.142,19.233z"/>
				<path fill="#273339" d="M27.984,39.793c0.383-0.054,0.765-0.108,1.148-0.161C28.758,39.741,28.375,39.797,27.984,39.793z"/>
				<path fill="#273339" d="M42.772,20.827c-0.04-0.36-0.08-0.72-0.119-1.08C42.751,20.101,42.788,20.461,42.772,20.827z"/>
				<path fill="#273339" d="M42.653,25.321c0.04-0.372,0.08-0.744,0.12-1.116C42.788,24.583,42.754,24.956,42.653,25.321z"/>
				<path fill="#273339" d="M22.808,39.67c0.284,0.023,0.565,0.066,0.844,0.12C23.363,39.807,23.08,39.776,22.808,39.67z"/>
				<path fill="#273339" d="M21.943,4.682c-0.279,0.067-0.557,0.134-0.836,0.201C21.372,4.759,21.651,4.692,21.943,4.682z"/>
				<path fill="#273339" d="M20.687,5.001c-0.237,0.093-0.478,0.174-0.727,0.23C20.188,5.108,20.426,5.017,20.687,5.001z"/>
				<path fill="#273339" d="M29.763,39.516c0.234-0.071,0.469-0.139,0.715-0.153C30.247,39.452,30.01,39.507,29.763,39.516z"/>
				<path fill="#273339" d="M8.409,17.889c-0.025,0.232-0.083,0.456-0.152,0.678C8.245,18.327,8.317,18.105,8.409,17.889z"/>
				<path fill="#273339" d="M12.723,34.268c0.151,0.126,0.296,0.258,0.401,0.426C12.973,34.569,12.813,34.451,12.723,34.268z"/>
				<path fill="#273339" d="M13.157,34.728c0.169,0.105,0.302,0.249,0.427,0.401C13.4,35.039,13.283,34.879,13.157,34.728z"/>
				<path fill="#273339" d="M22.756,11.676c0.195-0.077,0.394-0.142,0.605-0.158C23.167,11.601,22.971,11.673,22.756,11.676z"/>
				<path fill="#273339" d="M42.779,24.135c0.005-0.172-0.023-0.347,0.034-0.516C42.862,23.795,42.821,23.965,42.779,24.135z"/>
				<path fill="#273339" d="M42.813,21.41c-0.052-0.156-0.032-0.317-0.032-0.476C42.82,21.09,42.865,21.247,42.813,21.41z"/>
				<path fill="#273339" d="M7.938,23.147c0.02,0.144,0.053,0.287,0.036,0.434C7.918,23.44,7.848,23.3,7.938,23.147z"/>
				<path fill="#273339" d="M7.974,20.617c0.018,0.147-0.022,0.289-0.036,0.434C7.848,20.898,7.918,20.758,7.974,20.617z"/>
				<path fill="#273339" d="M30.276,4.854c-0.159-0.043-0.317-0.087-0.476-0.13C29.971,4.725,30.139,4.732,30.276,4.854z"/>
				<path fill="#273339" d="M7.902,22.54c0.048,0.187,0.039,0.377,0.036,0.567C7.854,22.923,7.916,22.729,7.902,22.54z"/>
				<path fill="#273339" d="M7.938,21.091c0.003,0.19,0.012,0.38-0.036,0.566C7.916,21.469,7.854,21.275,7.938,21.091z"/>
				<path fill="#273339" d="M20.196,39.039c0.144,0.033,0.304,0.027,0.409,0.159C20.47,39.142,20.317,39.131,20.196,39.039z"/>
				<path fill="#273339" d="M20.775,12.505c0.114-0.081,0.233-0.152,0.37-0.187C21.044,12.424,20.918,12.482,20.775,12.505z"/>
				<path fill="#273339" d="M8.575,26.932c0.061,0.13,0.108,0.264,0.12,0.409C8.617,27.215,8.562,27.084,8.575,26.932z"/>
				<path fill="#273339" d="M31.055,39.197c0.133-0.055,0.267-0.108,0.413-0.118C31.341,39.156,31.208,39.213,31.055,39.197z"/>
				<path fill="#273339" d="M30.003,12.15c0.129,0.025,0.242,0.082,0.344,0.163C30.213,12.298,30.102,12.236,30.003,12.15z"/>
				<path fill="#273339" d="M17.983,38.138c0.11,0.038,0.22,0.073,0.308,0.155C18.167,38.283,18.062,38.236,17.983,38.138z"/>
				<path fill="#273339" d="M21.581,39.442c0.138-0.023,0.263,0.026,0.387,0.076C21.834,39.522,21.705,39.493,21.581,39.442z"/>
				<path fill="#273339" d="M27.141,39.87c0.147-0.053,0.299-0.036,0.45-0.037C27.447,39.915,27.291,39.86,27.141,39.87z"/>
				<path fill="#273339" d="M13.702,8.951c-0.059,0.087-0.125,0.166-0.229,0.202C13.533,9.066,13.59,8.978,13.702,8.951z"/>
				<path fill="#273339" d="M42.324,27.098c0.033-0.119,0.034-0.245,0.093-0.357C42.428,26.871,42.414,26.994,42.324,27.098z"/>
				<path fill="#273339" d="M8.258,25.629c0.048,0.117,0.083,0.237,0.077,0.366C8.264,25.882,8.249,25.758,8.258,25.629z"/>
				<path fill="#273339" d="M32.135,5.451c-0.109-0.044-0.218-0.089-0.328-0.133C31.931,5.326,32.057,5.328,32.135,5.451z"/>
				<path fill="#273339" d="M27.591,4.367c-0.137-0.005-0.277,0.011-0.41-0.038C27.317,4.342,27.461,4.278,27.591,4.367z"/>
				<path fill="#273339" d="M24.032,39.834c0.137,0,0.276-0.016,0.409,0.036C24.305,39.858,24.162,39.917,24.032,39.834z"/>
				<path fill="#273339" d="M18.898,5.634c-0.086,0.061-0.178,0.105-0.284,0.116C18.695,5.678,18.783,5.621,18.898,5.634z"/>
				<path fill="#273339" d="M32.807,5.728c-0.096-0.045-0.193-0.089-0.289-0.134C32.637,5.59,32.741,5.618,32.807,5.728z"/>
				<path fill="#273339" d="M27.62,39.831c0.118-0.055,0.244-0.03,0.366-0.038C27.871,39.875,27.742,39.819,27.62,39.831z"/>
				<path fill="#273339" d="M24.326,4.329c-0.121,0.045-0.247,0.035-0.372,0.035C24.071,4.286,24.201,4.338,24.326,4.329z"/>
				<path fill="#273339" d="M30.99,5.043c-0.101-0.007-0.195-0.037-0.284-0.083C30.811,4.952,30.911,4.962,30.99,5.043z"/>
				<path fill="#273339" d="M17.79,6.145c-0.075,0.05-0.146,0.107-0.242,0.111C17.606,6.17,17.69,6.141,17.79,6.145z"/>
				<path fill="#273339" d="M12.768,9.859c-0.024,0.089-0.089,0.144-0.164,0.189C12.621,9.953,12.692,9.904,12.768,9.859z"/>
				<path fill="#273339" d="M28.342,11.557c0.1,0.005,0.198,0.016,0.279,0.082C28.519,11.641,28.421,11.631,28.342,11.557z"/>
				<path fill="#273339" d="M8.655,16.977c0.001,0.103-0.034,0.196-0.081,0.286C8.567,17.158,8.579,17.058,8.655,16.977z"/>
				<path fill="#273339" d="M21.111,4.881c-0.088,0.048-0.181,0.074-0.282,0.076C20.911,4.889,21.008,4.872,21.111,4.881z"/>
				<path fill="#273339" d="M42.049,28.166c0.03-0.094,0.061-0.188,0.091-0.283C42.146,27.989,42.141,28.091,42.049,28.166z"/>
				<path fill="#273339" d="M37.276,35.839c0.065-0.058,0.131-0.116,0.196-0.174C37.44,35.76,37.382,35.827,37.276,35.839z"/>
				<path fill="#273339" d="M33.996,38.054c0.073-0.052,0.146-0.103,0.238-0.114C34.178,38.028,34.094,38.056,33.996,38.054z"/>
				<path fill="#273339" d="M23.676,39.795c0.11,0.006,0.222-0.016,0.327,0.036C23.894,39.82,23.778,39.874,23.676,39.795z"/>
				<path fill="#273339" d="M23.923,4.367c-0.105,0.044-0.216,0.034-0.325,0.037C23.698,4.324,23.814,4.378,23.923,4.367z"/>
				<path fill="#273339" d="M27.907,4.402C27.8,4.4,27.691,4.412,27.588,4.366C27.695,4.378,27.808,4.326,27.907,4.402z"/>
				<path fill="#273339" d="M8.847,27.824c0.057,0.064,0.076,0.142,0.086,0.224C8.849,27.995,8.846,27.91,8.847,27.824z"/>
				<path fill="#273339" d="M42.655,19.75c-0.048-0.089-0.037-0.186-0.04-0.282C42.696,19.552,42.643,19.656,42.655,19.75z"/>
				<path fill="#273339" d="M34.153,6.389c-0.071-0.04-0.142-0.081-0.214-0.121C34.033,6.269,34.113,6.293,34.153,6.389z"/>
				<path fill="#273339" d="M17.43,37.864c0.079,0.015,0.152,0.042,0.2,0.111C17.548,37.965,17.476,37.937,17.43,37.864z"/>
				<path fill="#273339" d="M37.949,35.207c0.053-0.053,0.106-0.107,0.16-0.16C38.1,35.144,38.046,35.197,37.949,35.207z"/>
				<path fill="#273339" d="M42.615,25.6c0.004-0.095-0.006-0.192,0.04-0.281C42.644,25.413,42.696,25.516,42.615,25.6z"/>
				<path fill="#273339" d="M31.226,5.128c-0.081-0.026-0.169-0.034-0.239-0.088C31.079,5.034,31.172,5.027,31.226,5.128z"/>
				<path fill="#273339" d="M19.846,5.275c-0.074,0.045-0.154,0.076-0.241,0.084C19.664,5.269,19.755,5.271,19.846,5.275z"/>
				<path fill="#273339" d="M32.257,13.614c0.076,0.009,0.118,0.059,0.15,0.122C32.33,13.728,32.289,13.677,32.257,13.614z"/>
				<path fill="#273339" d="M29.252,11.838c0.076,0,0.143,0.021,0.195,0.078C29.371,11.919,29.303,11.899,29.252,11.838z"/>
				<path fill="#273339" d="M22.57,39.632c0.083-0.002,0.165-0.002,0.241,0.041C22.73,39.664,22.639,39.713,22.57,39.632z"/>
				<path fill="#273339" d="M27.356,11.356c0.083,0.009,0.17-0.007,0.246,0.043C27.519,11.389,27.425,11.441,27.356,11.356z"/>
				<path fill="#273339" d="M36.362,36.589c0.054-0.043,0.108-0.085,0.163-0.128C36.499,36.541,36.451,36.59,36.362,36.589z"/>
				<path fill="#273339" d="M8.924,16.148c0.007,0.081-0.027,0.15-0.071,0.214C8.841,16.279,8.86,16.206,8.924,16.148z"/>
				<path fill="#273339" d="M9.043,15.832c0,0.075-0.021,0.142-0.077,0.196C8.964,15.951,8.983,15.884,9.043,15.832z"/>
				<path fill="#273339" d="M11.654,11.165c-0.012,0.072-0.056,0.121-0.117,0.155C11.541,11.242,11.592,11.2,11.654,11.165z"/>
				<path fill="#273339" d="M14.057,8.634c-0.032,0.061-0.074,0.11-0.148,0.119C13.942,8.693,13.982,8.642,14.057,8.634z"/>
				<path fill="#273339" d="M23.912,11.402c0.073-0.052,0.158-0.036,0.239-0.039C24.081,11.435,23.992,11.391,23.912,11.402z"/>
				<path fill="#273339" d="M8.931,28.045c0.049,0.059,0.072,0.126,0.071,0.202C8.943,28.192,8.92,28.125,8.931,28.045z"/>
				<path fill="#273339" d="M9.168,28.673c0.047,0.062,0.081,0.128,0.079,0.209C9.177,28.829,9.159,28.756,9.168,28.673z"/>
				<path fill="#273339" d="M37.354,8.651c-0.052-0.044-0.105-0.089-0.157-0.133C37.284,8.521,37.333,8.569,37.354,8.651z"/>
				<path fill="#273339" d="M12.367,33.875c0.06,0.033,0.109,0.075,0.121,0.147C12.426,33.99,12.376,33.95,12.367,33.875z"/>
				<path fill="#273339" d="M37.078,8.41c-0.053-0.043-0.105-0.087-0.158-0.13C37.006,8.283,37.054,8.331,37.078,8.41z"/>
				<path fill="#273339" d="M13.83,35.364c0.074,0.01,0.116,0.06,0.148,0.121C13.903,35.477,13.862,35.426,13.83,35.364z"/>
				<path fill="#273339" d="M37,36.077c0.052-0.044,0.104-0.088,0.156-0.132C37.135,36.025,37.086,36.072,37,36.077z"/>
				<path fill="#273339" d="M9.243,15.318c0,0.074-0.02,0.14-0.079,0.189C9.162,15.432,9.183,15.367,9.243,15.318z"/>
				<path fill="#273339" d="M33.163,5.886c-0.066-0.032-0.133-0.065-0.199-0.097C33.046,5.789,33.126,5.793,33.163,5.886z"/>
				<path fill="#273339" d="M18.733,38.488c0.075,0,0.14,0.024,0.191,0.081C18.849,38.571,18.782,38.551,18.733,38.488z"/>
				<path fill="#273339" d="M32.884,38.565c0.06-0.048,0.126-0.079,0.204-0.078C33.037,38.554,32.966,38.574,32.884,38.565z"/>
				<path fill="#273339" d="M32.686,38.646c0.059-0.048,0.127-0.073,0.202-0.084C32.841,38.638,32.767,38.65,32.686,38.646z"/>
				<path fill="#273339" d="M19.328,38.732c0.076-0.005,0.143,0.017,0.195,0.074C19.447,38.81,19.381,38.788,19.328,38.732z"/>
				<path fill="#273339" d="M32.162,38.841c0.065-0.042,0.134-0.074,0.214-0.072C32.318,38.834,32.245,38.852,32.162,38.841z"/>
				<path fill="#273339" d="M19.1,5.554c-0.061,0.047-0.13,0.073-0.206,0.083C18.942,5.558,19.018,5.547,19.1,5.554z"/>
				<path fill="#273339" d="M19.609,5.356c-0.06,0.045-0.124,0.078-0.202,0.069C19.463,5.37,19.53,5.345,19.609,5.356z"/>
				<path fill="#273339" d="M23.711,11.44c0.062-0.044,0.133-0.039,0.203-0.039C23.857,11.47,23.78,11.433,23.711,11.44z"/>
				<path fill="#273339" d="M42.579,25.836c-0.004-0.072-0.006-0.145,0.034-0.21C42.61,25.697,42.645,25.775,42.579,25.836z"/>
				<path fill="#273339" d="M42.454,26.547c0.006-0.071-0.004-0.144,0.041-0.207C42.49,26.41,42.531,26.49,42.454,26.547z"/>
				<path fill="#273339" d="M42.414,26.744c0.007-0.068-0.007-0.141,0.043-0.2C42.45,26.612,42.491,26.691,42.414,26.744z"/>
				<path fill="#273339" d="M29.566,39.556c0.059-0.048,0.131-0.037,0.2-0.042C29.711,39.587,29.634,39.548,29.566,39.556z"/>
				<path fill="#273339" d="M29.358,39.593c0.064-0.045,0.137-0.038,0.21-0.038C29.509,39.627,29.43,39.588,29.358,39.593z"/>
				<path fill="#273339" d="M22.371,39.595c0.071-0.004,0.141-0.004,0.202,0.038C22.505,39.629,22.428,39.664,22.371,39.595z"/>
				<path fill="#273339" d="M29.129,39.634c0.062-0.039,0.131-0.042,0.202-0.037C29.274,39.664,29.198,39.629,29.129,39.634z"/>
				<path fill="#273339" d="M8.176,19.034c-0.006,0.069,0.004,0.14-0.037,0.202C8.144,19.168,8.109,19.092,8.176,19.034z"/>
				<path fill="#273339" d="M42.614,19.443c-0.041-0.065-0.039-0.138-0.035-0.211C42.645,19.294,42.61,19.372,42.614,19.443z"/>
				<path fill="#273339" d="M29.804,4.727c-0.07,0-0.139-0.004-0.199-0.045C29.673,4.69,29.752,4.649,29.804,4.727z"/>
				<path fill="#273339" d="M8.216,18.797c0.005,0.073-0.007,0.143-0.037,0.21C8.184,18.936,8.147,18.857,8.216,18.797z"/>
				<path fill="#273339" d="M29.607,4.683c-0.069-0.003-0.139,0-0.199-0.041C29.476,4.65,29.553,4.612,29.607,4.683z"/>
				<path fill="#273339" d="M42.576,19.2c-0.042-0.063-0.039-0.133-0.035-0.204C42.604,19.055,42.57,19.131,42.576,19.2z"/>
				<path fill="#273339" d="M17.182,6.459c-0.038,0.046-0.084,0.078-0.148,0.073C17.064,6.47,17.118,6.455,17.182,6.459z"/>
				<path fill="#273339" d="M9.757,30.001c0.024,0.026,0.048,0.051,0.072,0.077c0.001,0.023,0.002,0.045,0.003,0.068
					C9.769,30.117,9.753,30.064,9.757,30.001z"/>
			</g>
			<text transform="matrix(1 0 0 1 10.8749 45.7254)" fill="#273339" font-family="'ArialMT'" font-size="5.8642">Acadêmico</text>
		</g>
	</g>
</g>
</svg>
