<?xml version="1.0" encoding="utf-8"?>
<!-- Generator: Adobe Illustrator 17.0.0, SVG Export Plug-In . SVG Version: 6.00 Build 0)  -->
<!DOCTYPE svg PUBLIC "-//W3C//DTD SVG 1.1//EN" "http://www.w3.org/Graphics/SVG/1.1/DTD/svg11.dtd">
<svg version="1.1" id="Layer_1" xmlns="http://www.w3.org/2000/svg" xmlns:xlink="http://www.w3.org/1999/xlink" x="0px" y="0px"
	 width="96.615px" height="117.852px" viewBox="0 0 96.615 117.852" enable-background="new 0 0 96.615 117.852"
	 xml:space="preserve">
<g>
	<ellipse fill="#FAD3CD" cx="49.088" cy="113.185" rx="34.567" ry="4.668"/>
	<path fill="#1D672E" d="M23.871,74.835c0-9.338,2.827-17.841,8.484-25.509c6.036-8.199,13.286-12.299,21.751-12.299
		c8.692,0,14.748,1.48,18.164,4.441c3.568,3.113,5.352,8.655,5.352,16.626c0,6.146-1.072,11.863-3.204,17.156h16.968
		c1.598-5.459,2.407-11.175,2.407-17.156c0-12.185-3.302-21.314-9.907-27.388c-6.605-6.073-16.532-9.11-29.78-9.11
		c-13.779,0-25.206,5.979-34.278,17.936C11.742,50.161,7.699,61.929,7.699,74.835c0,0.14,0.009,0.275,0.01,0.415h16.172
		C23.879,75.111,23.871,74.975,23.871,74.835z"/>
	<path fill="#81B945" d="M69.935,83.603c-5.58,8.199-12.547,12.299-20.897,12.299c-7.174,0-13.116-1.898-17.823-5.694
		c-3.674-2.962-5.97-6.587-6.887-10.874H7.958c1.018,8.938,5.139,16.381,12.382,22.319c7.895,6.453,17.461,9.68,28.698,9.68
		c13.817,0,25.015-6.054,33.595-18.164c3.122-4.397,5.58-9.01,7.392-13.835H72.522C71.748,80.793,70.886,82.216,69.935,83.603z"/>
	<path stroke="#000000" stroke-miterlimit="10" d="M38.747,15.181v7.086c0,0,12.327,6.2,27.975,0v-6.865
		C66.721,15.402,50.335,18.502,38.747,15.181z"/>
	<path fill="#F1871A" d="M31.068,107.178c0,0,2.391-4.703,5.165-0.335c0,0,2.919-3.486,5.121,0.861c0,0,2.921-3.561,4.838,0.776
		c0,0,0.091,3.372-1.528,6.531c0,0-1.401,3.092-2.988-0.484l-0.896-2.877l-0.943,2.286c0,0-1.558,3.461-3.065-0.337l-0.894-2.952
		l-0.723,2.144c0,0-2.001,3.819-3.634-0.433L31.068,107.178z"/>
	<path fill="#F1871A" d="M65.96,107.178c0,0-2.391-4.703-5.165-0.335c0,0-2.919-3.486-5.121,0.861c0,0-2.921-3.561-4.838,0.776
		c0,0-0.091,3.372,1.528,6.531c0,0,1.401,3.092,2.988-0.484l0.896-2.877l0.943,2.286c0,0,1.558,3.461,3.065-0.337l0.894-2.952
		l0.723,2.144c0,0,2.001,3.819,3.634-0.433L65.96,107.178z"/>
	<polygon fill="#7DBB48" points="35.741,71.874 41.982,73.216 37.841,78.873 	"/>
	<polygon fill="#7DBB48" points="46.255,72.809 52.638,72.765 49.822,79.186 	"/>
	<polygon fill="#1D672E" points="51.329,82.783 57.712,82.739 54.897,89.16 	"/>
	<polygon fill="#1D672E" points="40.131,82.666 46.514,82.622 43.698,89.043 	"/>
	<polygon fill="#7DBB48" points="56.302,72.239 62.621,71.335 60.697,78.077 	"/>
	<path fill="#1D672E" d="M11.271,53.958c0,0,4.536,8.004,15.213,12.238c0,0,2.533,30.141-13.081,43.93c0,0-9.7-11.903-12.525-26.045
		c-0.098-0.492,3.899,8.206,3.818,7.709c-0.117-0.721-4.453-12.704-4.53-13.434c-0.384-3.62-0.098-5.264,0.818-8.91
		c0.149-0.591,3.614,8.351,3.614,7.733c0-0.706-2.725-10.613-2.505-11.165c0.651-1.629,2.495-4.956,3.524-6.525
		c0.368-0.561,2.369,9.111,2.51,8.433c0.196-0.941-1.253-9.743-0.643-10.412C8.597,56.292,9.855,55.105,11.271,53.958z"/>
	<path fill="#BABABA" d="M72.848,20.488c-8.351,0-15.69,4.27-19.929,10.723c-4.239-6.453-11.579-10.723-19.929-10.723
		c-13.126,0-23.767,10.542-23.767,23.546c0,13.004,10.641,23.546,23.767,23.546c8.351,0,15.69-4.27,19.929-10.723
		C57.158,63.31,64.497,67.58,72.848,67.58c13.126,0,23.767-10.542,23.767-23.546C96.615,31.03,85.974,20.488,72.848,20.488z"/>
	<path fill="#FAFCF9" d="M15.839,43.188c0,0.921,0,1.842,0,2.764C15.272,45.416,15.272,43.724,15.839,43.188z"/>
	<path fill="#F9FCFB" d="M16.018,49.899c-0.271-0.006-0.542-0.02-0.544-0.389c-0.002-0.367,0.265-0.393,0.538-0.393
		c0.304-0.001,0.62,0.005,0.589,0.437C16.573,49.926,16.272,49.884,16.018,49.899z"/>
	<path fill="#FFFFFF" d="M72.885,24.326c-9.743,0-17.877,6.728-19.818,15.692c-1.941-8.964-10.075-15.692-19.818-15.692
		c-11.19,0-20.261,8.873-20.261,19.818c0,10.945,9.071,19.818,20.261,19.818c9.743,0,17.877-6.728,19.818-15.692
		c1.941,8.964,10.075,15.692,19.818,15.692c11.19,0,20.261-8.873,20.261-19.818C93.146,33.199,84.075,24.326,72.885,24.326z"/>
	<path stroke="#000000" stroke-miterlimit="10" d="M43.568,41.098c-0.755,1.838-2.61,3.139-4.785,3.139
		c-2.843,0-5.148-2.222-5.148-4.964c0-2.106,1.362-3.901,3.282-4.622c-1.115-0.375-2.311-0.582-3.559-0.582
		c-5.962,0-10.795,4.66-10.795,10.407s4.833,10.407,10.795,10.407c5.962,0,10.795-4.66,10.795-10.407
		C44.153,43.294,43.946,42.158,43.568,41.098z"/>
	<path stroke="#000000" stroke-miterlimit="10" d="M82.984,41.098c-0.755,1.838-2.61,3.139-4.785,3.139
		c-2.843,0-5.148-2.222-5.148-4.964c0-2.106,1.362-3.901,3.282-4.622c-1.115-0.375-2.311-0.582-3.559-0.582
		c-5.962,0-10.795,4.66-10.795,10.407s4.833,10.407,10.795,10.407c5.962,0,10.795-4.66,10.795-10.407
		C83.569,43.294,83.361,42.158,82.984,41.098z"/>
	<path fill="#F1871A" d="M52.992,49.201c0,0-0.443,4.133-6.495,10.407l6.643,6.791l6.274-7.086
		C59.414,59.313,55.28,55.992,52.992,49.201z"/>
	<path fill="#251F1E" d="M15.201,9.497c-2.362-0.664-0.221-1.476-0.221-1.476L48.49,0.418c0,0,5.684-1.033,9.005,0.148l33.142,7.381
		c0,0,3.174,0.738,0.443,1.55l-7.529,1.845L83.846,14c0,0,2.657,1.698,0.886,4.281l3.764,11.662c0,0-4.503,4.355-9.226-0.074
		l1.919-11.219c0,0-2.51-2.288,0-4.133l-0.295-2.436l-23.398,5.61c0,0-4.576,1.107-8.857,0L15.201,9.497z"/>
</g>
</svg>
