<?xml version="1.0" encoding="utf-8"?>
<!-- Generator: Adobe Illustrator 17.0.0, SVG Export Plug-In . SVG Version: 6.00 Build 0)  -->
<!DOCTYPE svg PUBLIC "-//W3C//DTD SVG 1.1//EN" "http://www.w3.org/Graphics/SVG/1.1/DTD/svg11.dtd">
<svg version="1.1" id="Layer_1" xmlns="http://www.w3.org/2000/svg" xmlns:xlink="http://www.w3.org/1999/xlink" x="0px" y="0px"
	 width="37.665px" height="51.48px" viewBox="0 0 37.665 51.48" enable-background="new 0 0 37.665 51.48" xml:space="preserve">
<g>
	<text transform="matrix(1 0 0 1 5.6935 48.1942)" fill="#4D4D4D" font-family="'ComicSansMS-Bold'" font-size="10.8355">Enviar</text>
	<g>
		<ellipse fill="#FAD3CB" cx="22.202" cy="36.617" rx="10.989" ry="1.484"/>
		<path fill="#0C662F" d="M30.218,24.425c0-2.969-0.899-5.672-2.697-8.109c-1.919-2.607-4.223-3.91-6.915-3.91
			c-2.763,0-4.688,0.471-5.774,1.412c-1.134,0.99-1.701,2.751-1.701,5.285c0,1.954,0.341,3.771,1.019,5.454H8.756
			c-0.508-1.735-0.765-3.552-0.765-5.454c0-3.874,1.05-6.776,3.15-8.707c2.1-1.931,5.255-2.896,9.467-2.896
			c4.38,0,8.013,1.901,10.897,5.702c2.57,3.379,3.856,7.12,3.856,11.223c0,0.044-0.003,0.088-0.003,0.132h-5.141
			C30.216,24.513,30.218,24.47,30.218,24.425z"/>
		<path fill="#81B945" d="M15.575,27.213c1.774,2.607,3.989,3.91,6.643,3.91c2.281,0,4.169-0.603,5.666-1.81
			c1.168-0.942,1.898-2.094,2.189-3.457h5.204c-0.324,2.841-1.634,5.208-3.936,7.095c-2.51,2.051-5.551,3.077-9.123,3.077
			c-4.392,0-7.952-1.924-10.68-5.774c-0.992-1.398-1.774-2.864-2.35-4.398h5.564C14.998,26.319,15.272,26.772,15.575,27.213z"/>
		<path fill="#010202" stroke="#010202" stroke-miterlimit="10" d="M25.489,4.826v2.253c0,0-3.919,1.971-8.893,0V4.896
			C16.596,4.896,21.805,5.882,25.489,4.826z"/>
		<path fill="#EF881A" d="M27.93,34.707c0,0-0.76-1.495-1.642-0.106c0,0-0.928-1.108-1.628,0.274c0,0-0.929-1.132-1.538,0.247
			c0,0-0.029,1.072,0.486,2.076c0,0,0.446,0.983,0.95-0.154l0.285-0.915l0.3,0.727c0,0,0.495,1.1,0.974-0.107l0.284-0.938
			l0.23,0.682c0,0,0.636,1.214,1.155-0.138L27.93,34.707z"/>
		<path fill="#EF881A" d="M16.838,34.707c0,0,0.76-1.495,1.642-0.106c0,0,0.928-1.108,1.628,0.274c0,0,0.929-1.132,1.538,0.247
			c0,0,0.029,1.072-0.486,2.076c0,0-0.446,0.983-0.95-0.154l-0.285-0.915l-0.3,0.727c0,0-0.495,1.1-0.974-0.107l-0.284-0.938
			l-0.23,0.682c0,0-0.636,1.214-1.155-0.138L16.838,34.707z"/>
		<polygon fill="#81B945" points="26.445,23.484 24.461,23.911 25.777,25.709 		"/>
		<polygon fill="#81B945" points="23.103,23.781 21.073,23.767 21.968,25.809 		"/>
		<polygon fill="#0C662F" points="21.489,26.952 19.46,26.938 20.355,28.979 		"/>
		<polygon fill="#0C662F" points="25.049,26.915 23.02,26.901 23.915,28.942 		"/>
		<polygon fill="#81B945" points="19.909,23.6 17.9,23.313 18.512,25.456 		"/>
		<path fill="#0C662F" d="M14.187,17.59c0,0-1.245,2.647-0.384,6.195c0,0-7.358,6.19-13.803,4.668c0,0,1.309-4.702,4.461-8.032
			c0.11-0.116-1.414,2.518-1.3,2.406c0.166-0.163,2.48-3.488,2.655-3.642c0.869-0.764,1.348-0.992,2.463-1.423
			c0.181-0.07-1.504,2.471-1.344,2.358c0.183-0.13,2.254-2.655,2.438-2.699c0.542-0.13,1.744-0.262,2.34-0.283
			c0.213-0.007-1.93,2.287-1.728,2.199c0.28-0.122,2.299-2.114,2.584-2.078C13.09,17.324,13.629,17.433,14.187,17.59z"/>
		<path fill="#BABABA" d="M14.649,7.149c2.655,0,4.988,1.357,6.335,3.409c1.348-2.051,3.681-3.409,6.335-3.409
			c4.173,0,7.556,3.351,7.556,7.485c0,4.134-3.383,7.485-7.556,7.485c-2.655,0-4.988-1.357-6.335-3.409
			c-1.348,2.051-3.681,3.409-6.335,3.409c-4.173,0-7.556-3.351-7.556-7.485C7.093,10.5,10.476,7.149,14.649,7.149z"/>
		<path fill="#FBFCF8" d="M32.772,14.365c0,0.293,0,0.586,0,0.879C32.952,15.073,32.952,14.536,32.772,14.365z"/>
		<path fill="#FBFCFB" d="M32.715,16.498c0.086-0.002,0.172-0.006,0.173-0.124c0.001-0.117-0.084-0.125-0.171-0.125
			c-0.096,0-0.197,0.002-0.187,0.139C32.538,16.507,32.634,16.494,32.715,16.498z"/>
		<path fill="#FFFFFF" d="M14.637,8.369c3.097,0,5.683,2.139,6.3,4.988c0.617-2.85,3.203-4.988,6.3-4.988
			c3.557,0,6.441,2.821,6.441,6.3c0,3.479-2.884,6.3-6.441,6.3c-3.097,0-5.683-2.139-6.3-4.988c-0.617,2.85-3.203,4.988-6.3,4.988
			c-3.557,0-6.441-2.821-6.441-6.3C8.196,11.19,11.08,8.369,14.637,8.369z"/>
		<path fill="#010202" stroke="#010202" stroke-miterlimit="10" d="M23.957,13.701c0.24,0.584,0.83,0.998,1.521,0.998
			c0.904,0,1.637-0.706,1.637-1.578c0-0.669-0.433-1.24-1.043-1.469c0.354-0.119,0.735-0.185,1.131-0.185
			c1.895,0,3.432,1.481,3.432,3.308s-1.536,3.308-3.432,3.308c-1.895,0-3.432-1.481-3.432-3.308
			C23.771,14.399,23.837,14.037,23.957,13.701z"/>
		<path fill="#010202" stroke="#010202" stroke-miterlimit="10" d="M11.427,13.701c0.24,0.584,0.83,0.998,1.521,0.998
			c0.904,0,1.637-0.706,1.637-1.578c0-0.669-0.433-1.24-1.043-1.469c0.354-0.119,0.735-0.185,1.131-0.185
			c1.895,0,3.432,1.481,3.432,3.308s-1.536,3.308-3.432,3.308c-1.895,0-3.432-1.481-3.432-3.308
			C11.241,14.399,11.307,14.037,11.427,13.701z"/>
		<path fill="#EF881A" d="M20.961,16.277c0,0,0.141,1.314,2.065,3.308l-2.112,2.159l-1.994-2.253
			C18.919,19.491,20.233,18.435,20.961,16.277z"/>
		<path fill="#221F1F" d="M32.975,3.019c0.751-0.211,0.07-0.469,0.07-0.469L22.392,0.133c0,0-1.807-0.329-2.863,0.047L8.994,2.526
			c0,0-1.009,0.235-0.141,0.493l2.393,0.587L11.153,4.45c0,0-0.845,0.54-0.282,1.361L9.674,9.519c0,0,1.431,1.384,2.933-0.023
			l-0.61-3.567c0,0,0.798-0.727,0-1.314l0.094-0.774l7.438,1.783c0,0,1.455,0.352,2.816,0L32.975,3.019z"/>
	</g>
</g>
</svg>
