<?xml version="1.0" encoding="utf-8"?>
<!-- Generator: Adobe Illustrator 17.0.0, SVG Export Plug-In . SVG Version: 6.00 Build 0)  -->
<!DOCTYPE svg PUBLIC "-//W3C//DTD SVG 1.1//EN" "http://www.w3.org/Graphics/SVG/1.1/DTD/svg11.dtd">
<svg version="1.1" id="Layer_1" xmlns="http://www.w3.org/2000/svg" xmlns:xlink="http://www.w3.org/1999/xlink" x="0px" y="0px"
	 width="215.919px" height="69.866px" viewBox="0 0 215.919 69.866" enable-background="new 0 0 215.919 69.866"
	 xml:space="preserve">
<g>
	<path fill="#F6F6F6" d="M215.919,65.355c0,2.492-2.02,4.511-4.511,4.511H4.511C2.02,69.866,0,67.846,0,65.355V4.511
		C0,2.02,2.02,0,4.511,0h206.897c2.492,0,4.511,2.02,4.511,4.511V65.355z"/>
	<ellipse fill="#FAD3CB" cx="25.51" cy="59.258" rx="14.927" ry="2.016"/>
	<path fill="#0C662F" d="M80.322,35.295c0.082-0.311,0.123-0.549,0.123-0.713c0-0.901-0.357-1.655-1.07-2.262
		c-0.713-0.606-1.537-0.91-2.471-0.91c-1.689,0-2.713,0.705-3.074,2.115c-0.991,3.864-1.792,6.981-2.403,9.351h6.779
		C78.913,40.446,79.618,37.922,80.322,35.295z"/>
	<path fill="#0C662F" d="M68.74,41.541c-0.459-2.672-0.894-4.844-1.303-6.516c-0.574-2.377-1.771-3.565-3.59-3.565
		c-1.853,0-3.115,1.066-3.787,3.196c-0.969,3.049-1.869,5.787-2.701,8.22h11.613C68.898,42.453,68.821,42.009,68.74,41.541z"/>
	<path fill="#81B945" d="M69.97,48.475c-0.103-0.514-0.333-1.794-0.691-3.835h-6.131c0.6,4.06,1.12,6.839,1.559,8.335
		c1.18,3.95,2.803,5.942,4.869,5.975c1.311,0.016,2.36-0.516,3.147-1.598c1.114-1.557,1.918-3.074,2.41-4.549
		c0.854-2.578,1.706-5.3,2.556-8.163h-6.717C70.375,46.95,70.041,48.231,69.97,48.475z"/>
	<path fill="#0C662F" d="M54.897,40.803c-0.049-0.344-0.172-1.483-0.369-3.418c-0.147-1.344-0.328-2.475-0.541-3.393
		c-0.41-1.754-1.5-2.631-3.27-2.631c-0.951,0-1.767,0.299-2.447,0.898c-0.681,0.599-1.021,1.349-1.021,2.25
		c0,0.836,0.114,1.992,0.344,3.467c0.282,1.802,0.543,3.432,0.786,4.9h6.851C55.099,42.042,54.987,41.345,54.897,40.803z"/>
	<path fill="#0C662F" d="M90.895,20.664c0-0.95-0.311-1.717-0.934-2.299c-0.623-0.582-1.418-0.873-2.385-0.873
		c-0.967,0-1.779,0.279-2.434,0.836c-0.689,0.607-1.033,1.386-1.033,2.336v2.295v0.813v19.103h6.787V20.664z"/>
	<path fill="#0C662F" d="M108.157,40.262c3.196-3.049,6.237-6.139,9.122-9.27c3.901-4.262,5.852-6.901,5.852-7.918
		c0-0.935-0.348-1.729-1.045-2.385c-0.697-0.655-1.512-0.984-2.446-0.984c-0.984,0-1.853,0.41-2.607,1.23
		c-7.36,8.032-11.614,12.59-12.762,13.672c0.033-1.065,0.139-3.057,0.32-5.975c0.148-2.508,0.221-4.5,0.221-5.975
		c0-0.918-0.324-1.705-0.971-2.361c-0.648-0.655-1.463-0.983-2.447-0.983c-0.983,0-1.803,0.328-2.459,0.983
		c-0.656,0.656-0.984,1.443-0.984,2.361c0,3.639-0.115,9.106-0.344,16.401c-0.042,1.334-0.08,2.606-0.114,3.818h13.442
		C110.009,42.004,109.079,41.133,108.157,40.262z"/>
	<path fill="#0C662F" d="M137.981,39.823c1.351-1.805,2.728-2.708,4.133-2.708c0.656,0,0.984,0.68,0.984,2.041
		c0,0.295-0.017,0.676-0.049,1.143c-0.033,0.467-0.049,0.758-0.049,0.873c0,0.356-0.02,0.926-0.06,1.704h6.699v-0.573
		c0-3.459-0.394-6.057-1.181-7.795c-1.18-2.59-3.319-3.885-6.417-3.885c-2.656,0-5.18,1.205-7.574,3.614l-0.024-0.27
		c-0.148-2.573-1.296-3.861-3.443-3.861c-0.967,0-1.782,0.305-2.446,0.914c-0.664,0.609-0.996,1.382-0.996,2.316
		c0,0.484,0.029,1.223,0.086,2.216c0.057,0.993,0.086,1.74,0.086,2.241c0,1.287-0.075,2.986-0.223,5.081h8.678
		C136.711,41.739,137.309,40.721,137.981,39.823z"/>
	<path fill="#0C662F" d="M161.073,40.705c1.164-1.852,2.754-2.77,4.77-2.754c2.345,0.013,3.698,1.66,4.068,4.925h6.635
		c-0.192-2.926-1.047-5.42-2.565-7.482c-1.934-2.623-4.541-3.934-7.819-3.934c-4.443,0-7.91,1.672-10.401,5.016
		c-1.441,1.948-2.36,4.081-2.757,6.4h7.074C160.32,42.104,160.648,41.378,161.073,40.705z"/>
	<path fill="#0C662F" d="M186.744,40.803c-0.049-0.344-0.172-1.483-0.369-3.418c-0.148-1.344-0.328-2.475-0.541-3.393
		c-0.41-1.754-1.5-2.631-3.27-2.631c-0.951,0-1.767,0.299-2.447,0.898c-0.68,0.599-1.02,1.349-1.02,2.25
		c0,0.836,0.114,1.992,0.344,3.467c0.282,1.802,0.543,3.432,0.786,4.9h6.851C186.947,42.042,186.834,41.345,186.744,40.803z"/>
	<path fill="#0C662F" d="M200.588,41.541c-0.459-2.672-0.894-4.844-1.303-6.516c-0.574-2.377-1.77-3.565-3.59-3.565
		c-1.852,0-3.115,1.066-3.787,3.196c-0.969,3.049-1.869,5.787-2.701,8.22h11.613C200.746,42.453,200.669,42.009,200.588,41.541z"/>
	<path fill="#0C662F" d="M212.17,35.295c0.082-0.311,0.123-0.549,0.123-0.713c0-0.901-0.357-1.655-1.07-2.262
		c-0.713-0.606-1.537-0.91-2.471-0.91c-1.689,0-2.713,0.705-3.074,2.115c-0.991,3.864-1.792,6.981-2.403,9.351h6.779
		C210.761,40.446,211.466,37.922,212.17,35.295z"/>
	<path fill="#81B945" d="M55.88,47.073c-0.136-0.891-0.26-1.696-0.374-2.434h-6.831c0.535,3.139,0.961,5.344,1.279,6.614
		c0.557,2.246,1.287,4.082,2.188,5.508c0.852,1.41,1.664,2.098,2.434,2.066c1.36-0.049,2.385-0.623,3.074-1.721
		c0.492-0.41,0.861-0.959,1.107-1.648c1.639-4.278,2.885-7.434,3.737-9.467c0.078-0.233,0.278-0.689,0.593-1.352h-6.339
		C56.45,45.492,56.16,46.307,55.88,47.073z"/>
	<path fill="#81B945" d="M84.109,54.671c0,0.984,0.32,1.787,0.959,2.41c0.639,0.623,1.451,0.934,2.434,0.934
		c2.262,0,3.393-1.557,3.393-4.672V44.64h-6.787V54.671z"/>
	<path fill="#81B945" d="M97.264,55.458c0,0.934,0.287,1.811,0.86,2.631c0.738,1.049,1.754,1.574,3.049,1.574
		c1.098,0,1.934-0.418,2.508-1.254c0.41-0.607,0.615-1.271,0.615-1.992l0.025-10.352c4.147,4.017,6.778,6.484,7.893,7.401
		c3.737,3.066,6.778,4.598,9.123,4.598c1.082,0,1.926-0.442,2.533-1.327c0.443-0.656,0.664-1.336,0.664-2.041
		c0-1.59-0.877-2.664-2.631-3.221c-0.967-0.311-1.869-0.771-2.705-1.377c-1.672-1.246-3.557-2.836-5.655-4.77
		c-0.245-0.229-0.487-0.459-0.731-0.688H97.446C97.325,49.207,97.264,52.817,97.264,55.458z"/>
	<path fill="#81B945" d="M142.828,45.549c0,1.59,0.123,3.287,0.369,5.09c0.23,1.705,0.459,3.402,0.689,5.09
		c0.229,1.983,1.352,2.975,3.369,2.975c0.967,0,1.779-0.304,2.434-0.91c0.656-0.607,0.984-1.368,0.984-2.287
		c0-1.262-0.176-2.902-0.529-4.918s-0.529-3.664-0.529-4.943c0-0.222,0.004-0.561,0.013-1.007h-6.776
		C142.836,45.024,142.828,45.328,142.828,45.549z"/>
	<path fill="#81B945" d="M127.041,51.167c0,0.467,0.049,1.173,0.148,2.116c0.098,0.943,0.148,1.648,0.148,2.116
		c0,0.952,0.319,1.74,0.959,2.366c0.639,0.626,1.451,0.939,2.434,0.939c0.984,0,1.799-0.315,2.447-0.945
		c0.647-0.63,0.971-1.423,0.971-2.38c0-0.47,0.053-1.18,0.16-2.129c0.107-0.949,0.16-1.659,0.16-2.129
		c0-0.722,0.046-1.461,0.138-2.217c0.107-0.924,0.175-1.662,0.206-2.217c0.197-0.715,0.414-1.397,0.65-2.048h-8.088
		C127.152,47.416,127.041,49.595,127.041,51.167z"/>
	<path fill="#81B945" d="M169.999,45.893c-0.083,1.935-0.722,3.467-1.918,4.598c-1.049,0.967-2.287,1.451-3.713,1.451
		c-1.18,0-2.213-0.418-3.098-1.254c-1.115-1.049-1.672-2.557-1.672-4.524c0-0.525,0.032-1.033,0.094-1.524h-6.884
		c-0.029,0.5-0.037,1.008-0.021,1.524c0.114,3.803,1.368,6.844,3.762,9.123c2.18,2.082,4.786,3.123,7.819,3.123
		c3.836,0,6.893-1.5,9.172-4.5c1.948-2.576,2.952-5.67,3.033-9.27h-6.558C170.019,45.041,170.017,45.455,169.999,45.893z"/>
	<path fill="#81B945" d="M201.818,48.475c-0.103-0.514-0.333-1.794-0.691-3.835h-6.13c0.6,4.06,1.12,6.839,1.559,8.335
		c1.18,3.95,2.803,5.942,4.869,5.975c1.311,0.016,2.36-0.516,3.148-1.598c1.114-1.557,1.918-3.074,2.409-4.549
		c0.854-2.578,1.706-5.3,2.556-8.163h-6.717C202.223,46.95,201.888,48.231,201.818,48.475z"/>
	<path fill="#81B945" d="M187.728,47.073c-0.136-0.891-0.26-1.696-0.374-2.434h-6.831c0.535,3.139,0.961,5.344,1.279,6.614
		c0.557,2.246,1.287,4.082,2.188,5.508c0.852,1.41,1.664,2.098,2.434,2.066c1.361-0.049,2.385-0.623,3.074-1.721
		c0.492-0.41,0.86-0.959,1.106-1.648c1.639-4.278,2.885-7.434,3.738-9.467c0.078-0.233,0.278-0.689,0.593-1.352h-6.339
		C188.297,45.492,188.007,46.307,187.728,47.073z"/>
	<path fill="#0C662F" d="M14.62,42.696c0-4.033,1.221-7.705,3.664-11.016c2.607-3.541,5.737-5.311,9.393-5.311
		c3.754,0,6.369,0.639,7.844,1.918c1.541,1.344,2.311,3.737,2.311,7.18c0,2.654-0.463,5.123-1.384,7.408h7.328
		c0.69-2.357,1.039-4.826,1.039-7.408c0-5.262-1.426-9.204-4.278-11.827c-2.852-2.623-7.139-3.934-12.86-3.934
		c-5.95,0-10.885,2.582-14.803,7.746c-3.492,4.59-5.238,9.672-5.238,15.245c0,0.06,0.004,0.119,0.004,0.179h6.984
		C14.623,42.816,14.62,42.757,14.62,42.696z"/>
	<path fill="#81B945" d="M34.512,46.483c-2.41,3.541-5.418,5.311-9.024,5.311c-3.098,0-5.664-0.819-7.697-2.459
		c-1.587-1.279-2.578-2.845-2.974-4.696h-7.07c0.44,3.86,2.219,7.074,5.347,9.638c3.409,2.787,7.54,4.18,12.393,4.18
		c5.967,0,10.803-2.614,14.508-7.844c1.348-1.899,2.41-3.891,3.192-5.974H35.63C35.295,45.269,34.923,45.884,34.512,46.483z"/>
	<path fill="#010202" stroke="#010202" stroke-miterlimit="10" d="M21.044,16.072v3.06c0,0,5.323,2.678,12.081,0v-2.964
		C33.124,16.167,26.048,17.506,21.044,16.072z"/>
	<path fill="#EF881A" d="M17.728,56.664c0,0,1.032-2.031,2.23-0.145c0,0,1.26-1.505,2.211,0.372c0,0,1.262-1.538,2.089,0.335
		c0,0,0.039,1.456-0.66,2.82c0,0-0.605,1.335-1.29-0.209l-0.387-1.243l-0.407,0.987c0,0-0.673,1.495-1.323-0.145l-0.386-1.275
		l-0.312,0.926c0,0-0.864,1.649-1.569-0.187L17.728,56.664z"/>
	<path fill="#EF881A" d="M32.796,56.664c0,0-1.032-2.031-2.23-0.145c0,0-1.26-1.505-2.211,0.372c0,0-1.262-1.538-2.089,0.335
		c0,0-0.039,1.456,0.66,2.82c0,0,0.605,1.335,1.29-0.209l0.387-1.243l0.407,0.987c0,0,0.673,1.495,1.323-0.145l0.386-1.275
		l0.312,0.926c0,0,0.864,1.649,1.569-0.187L32.796,56.664z"/>
	<polygon fill="#81B945" points="19.746,41.418 22.441,41.997 20.653,44.44 	"/>
	<polygon fill="#81B945" points="24.286,41.822 27.043,41.803 25.827,44.576 	"/>
	<polygon fill="#0C662F" points="26.477,46.129 29.234,46.11 28.018,48.883 	"/>
	<polygon fill="#0C662F" points="21.642,46.078 24.398,46.059 23.182,48.832 	"/>
	<polygon fill="#81B945" points="28.625,41.575 31.354,41.185 30.523,44.096 	"/>
	<path fill="#0C662F" d="M9.179,33.681c0,0,1.959,3.457,6.57,5.285c0,0,1.094,13.016-5.649,18.971c0,0-4.189-5.14-5.409-11.247
		c-0.042-0.212,1.684,3.544,1.649,3.329c-0.051-0.311-1.923-5.486-1.956-5.801c-0.166-1.563-0.042-2.273,0.353-3.848
		c0.064-0.255,1.561,3.606,1.561,3.34c0-0.305-1.177-4.583-1.082-4.821c0.281-0.703,1.077-2.14,1.522-2.818
		c0.159-0.242,1.023,3.935,1.084,3.642c0.085-0.407-0.541-4.207-0.278-4.496C8.024,34.689,8.567,34.176,9.179,33.681z"/>
	<path fill="#BABABA" d="M35.77,19.227c-3.606,0-6.776,1.844-8.606,4.63c-1.831-2.786-5-4.63-8.606-4.63
		c-5.669,0-10.264,4.552-10.264,10.168c0,5.616,4.595,10.168,10.264,10.168c3.606,0,6.776-1.844,8.606-4.63
		c1.831,2.786,5,4.63,8.606,4.63c5.669,0,10.264-4.552,10.264-10.168C46.034,23.78,41.439,19.227,35.77,19.227z"/>
	<path fill="#FBFCF8" d="M11.151,29.03c0,0.398,0,0.796,0,1.193C10.906,29.992,10.906,29.262,11.151,29.03z"/>
	<path fill="#FBFCFB" d="M11.229,31.928c-0.117-0.003-0.234-0.009-0.235-0.168c-0.001-0.158,0.114-0.17,0.232-0.17
		c0.131,0,0.268,0.002,0.254,0.189C11.468,31.94,11.338,31.922,11.229,31.928z"/>
	<path fill="#FFFFFF" d="M35.786,20.885c-4.207,0-7.72,2.905-8.558,6.776c-0.838-3.871-4.351-6.776-8.558-6.776
		c-4.832,0-8.75,3.832-8.75,8.558c0,4.727,3.917,8.558,8.75,8.558c4.207,0,7.72-2.905,8.558-6.776
		c0.838,3.871,4.351,6.776,8.558,6.776c4.832,0,8.75-3.832,8.75-8.558C44.536,24.716,40.618,20.885,35.786,20.885z"/>
	<path fill="#010202" stroke="#010202" stroke-miterlimit="10" d="M23.126,28.127c-0.326,0.794-1.127,1.356-2.066,1.356
		c-1.228,0-2.223-0.96-2.223-2.143c0-0.909,0.588-1.685,1.417-1.996c-0.481-0.162-0.998-0.251-1.537-0.251
		c-2.575,0-4.662,2.012-4.662,4.494s2.087,4.494,4.662,4.494c2.575,0,4.662-2.012,4.662-4.494
		C23.379,29.076,23.289,28.585,23.126,28.127z"/>
	<path fill="#010202" stroke="#010202" stroke-miterlimit="10" d="M40.147,28.127c-0.326,0.794-1.127,1.356-2.066,1.356
		c-1.228,0-2.223-0.96-2.223-2.143c0-0.909,0.588-1.685,1.417-1.996c-0.481-0.162-0.998-0.251-1.537-0.251
		c-2.575,0-4.662,2.012-4.662,4.494s2.087,4.494,4.662,4.494c2.575,0,4.662-2.012,4.662-4.494
		C40.4,29.076,40.31,28.585,40.147,28.127z"/>
	<path fill="#EF881A" d="M27.196,31.627c0,0-0.191,1.785-2.805,4.494l2.869,2.933l2.709-3.06
		C29.969,35.994,28.184,34.559,27.196,31.627z"/>
	<path fill="#221F1F" d="M10.876,13.617c-1.02-0.287-0.096-0.638-0.096-0.638l14.471-3.283c0,0,2.454-0.446,3.889,0.064
		l14.312,3.188c0,0,1.371,0.319,0.191,0.669l-3.251,0.797l0.127,1.148c0,0,1.148,0.733,0.383,1.849l1.626,5.036
		c0,0-1.944,1.881-3.984-0.032l0.829-4.845c0,0-1.084-0.988,0-1.785l-0.127-1.052L29.14,17.155c0,0-1.976,0.478-3.825,0
		L10.876,13.617z"/>
</g>
</svg>
