<?xml version="1.0" encoding="utf-8"?>
<!-- Generator: Adobe Illustrator 17.0.0, SVG Export Plug-In . SVG Version: 6.00 Build 0)  -->
<!DOCTYPE svg PUBLIC "-//W3C//DTD SVG 1.1//EN" "http://www.w3.org/Graphics/SVG/1.1/DTD/svg11.dtd">
<svg version="1.1" id="Layer_1" xmlns="http://www.w3.org/2000/svg" xmlns:xlink="http://www.w3.org/1999/xlink" x="0px" y="0px"
	 width="50px" height="35px" viewBox="0 0 64.25 45.317" enable-background="new 0 0 64.25 45.317" xml:space="preserve">
<g>
	<path fill="#FFFFFF" d="M15.598,2.868c3.951-0.489,7.551,2.317,8.04,6.269c0.222,1.796-0.236,3.519-1.174,4.911
		c1.918-1.51,3.022-3.956,2.7-6.555c-0.489-3.951-4.089-6.758-8.04-6.268c-2.155,0.267-3.969,1.459-5.094,3.129
		C13.028,3.568,14.246,3.036,15.598,2.868z"/>
	<g>
		
			<text transform="matrix(1.0102 0 -0.2793 0.9602 47.3649 42.9277)" fill="#FFFFFF" font-family="'TitilliumWeb-Bold'" font-size="1.9219">Web Development</text>
	</g>
	<g>
		<g>
			<path fill="#FFFFFF" d="M20.337,45.317c-3.698,0-6.979-1.625-9.753-4.83l-0.039-0.045l0.004-0.06
				c0.017-0.23,0.133-0.63,0.354-1.22c0.208-0.508,0.313-0.959,0.313-1.344c0-0.13-0.004-0.259-0.012-0.384L9.581,23.394
				l-2.18,9.975l-0.808,0.479l-2.41-10.252C4,25.174,3.817,26.776,3.638,28.369c-0.284,2.557-0.428,4.433-0.428,5.574v3.91
				c0,0.389,0.17,1.149-0.173,2.394l-0.442,2.12l-2.302-2.069l0.03-0.937l0.018-0.031c0.457-0.798,0.928-3.325,1.4-7.513
				c0.403-3.664,0.607-6.402,0.607-8.137c0-1.349-0.233-2.577-0.692-3.65l-0.074-0.172l0.185-0.028c0.53-0.08,1.5-0.121,2.882-0.121
				h1.518l-0.056,0.187c-0.146,0.484-0.22,1.1-0.22,1.829c0,2.033,0.344,4.03,1.022,5.942c0.632-1.806,0.953-3.619,0.953-5.393
				c0-0.155-0.033-0.385-0.098-0.684c-0.07-0.322-0.105-0.559-0.105-0.722c0-0.306,0.088-0.707,0.27-1.228l0.034-0.097h3.897
				l0.01,0.135c0.056,0.773,0.072,1.756,0.048,2.922c-0.015,0.98-0.027,1.715-0.034,2.206c-0.006,0.387-0.01,0.603-0.024,0.724
				h0.011c0,4.236,0.532,8.523,1.581,12.743c0.939,3.811,2.68,5.743,5.175,5.743c0.65,0,1.519-0.26,2.583-0.772l0.03-0.014h1.513
				v0.145C22.759,44.663,21.944,45.317,20.337,45.317z"/>
			<path fill="#FFFFFF" d="M22.614,43.372c0,1.2-0.759,1.8-2.277,1.8c-3.671,0-6.886-1.593-9.643-4.78
				c0.016-0.215,0.131-0.608,0.346-1.18c0.215-0.524,0.322-0.989,0.322-1.395c0-0.135-0.004-0.266-0.012-0.393L9.621,22.477h0.012
				l-2.36,10.799l-0.584,0.346L4.102,22.62H4.15c-0.223,1.907-0.441,3.818-0.656,5.733c-0.286,2.575-0.429,4.438-0.429,5.59v3.91
				c0,0.405-0.522,1.121-0.18,2.249l-2.442,0.051L0,39.799c0.469-0.818,1.408-3.738,1.885-7.965
				c0.405-3.687,0.608-6.405,0.608-8.153c0-1.375-0.234-2.61-0.703-3.707c0.524-0.079,1.478-0.119,2.861-0.119h1.323
				c-0.151,0.501-0.227,1.125-0.227,1.871c0,2.193,0.389,4.315,1.168,6.365c0.731-1.955,1.097-3.894,1.097-5.817
				c0-0.167-0.034-0.405-0.101-0.715c-0.068-0.31-0.101-0.54-0.101-0.691c0-0.286,0.087-0.679,0.262-1.18h3.659
				c0.055,0.771,0.071,1.74,0.048,2.908c-0.032,2.074-0.048,3.051-0.048,2.932c0,4.267,0.528,8.527,1.585,12.778
				c0.961,3.902,2.734,5.853,5.316,5.853c0.675,0,1.557-0.262,2.646-0.787H22.614z"/>
			<path fill="#FFFFFF" d="M18.167,40.358c-1.061,0-1.997-0.702-2.784-2.088c-0.677-1.176-1.02-2.344-1.02-3.469
				c0-1.102,0.384-2.314,1.14-3.602c0.841-1.486,1.798-2.241,2.843-2.241c1.044,0,1.977,0.698,2.772,2.075
				c0.685,1.202,1.033,2.365,1.033,3.458c0,1.195-0.347,2.426-1.031,3.658C20.309,39.615,19.316,40.358,18.167,40.358z
				 M18.525,30.298c-0.78,0-1.287,0.587-1.551,1.793c-0.124,0.62-0.187,1.601-0.187,2.913c0,2.751,0.464,4.146,1.381,4.146
				c0.429,0,0.814-0.353,1.144-1.049c0.275-0.597,0.415-1.17,0.415-1.702v-4.017c0-0.412-0.115-0.852-0.342-1.306
				C19.133,30.56,18.844,30.298,18.525,30.298z"/>
			<path fill="#FFFFFF" d="M22.005,34.492c0,1.176-0.338,2.372-1.013,3.588c-0.787,1.423-1.728,2.134-2.825,2.134
				c-1.009,0-1.895-0.671-2.658-2.014c-0.668-1.16-1.001-2.293-1.001-3.397c0-1.081,0.373-2.257,1.12-3.528
				c0.818-1.446,1.724-2.169,2.718-2.169c0.993,0,1.875,0.668,2.646,2.003C21.667,32.291,22.005,33.419,22.005,34.492z
				 M19.872,36.399v-4.017c0-0.437-0.119-0.894-0.358-1.371c-0.278-0.572-0.608-0.858-0.989-0.858c-0.85,0-1.415,0.636-1.693,1.907
				c-0.127,0.636-0.191,1.617-0.191,2.944c0,2.861,0.508,4.291,1.526,4.291c0.493,0,0.918-0.377,1.275-1.132
				C19.729,37.543,19.872,36.955,19.872,36.399z"/>
			<path fill="#FFFFFF" d="M26.487,40.358c-1.061,0-1.997-0.702-2.784-2.088c-0.677-1.176-1.02-2.344-1.02-3.469
				c0-1.102,0.384-2.314,1.14-3.602c0.841-1.486,1.798-2.241,2.843-2.241c1.044,0,1.977,0.698,2.772,2.075
				c0.685,1.202,1.033,2.365,1.033,3.458c0,1.195-0.347,2.426-1.031,3.658C28.629,39.615,27.635,40.358,26.487,40.358z
				 M26.845,30.298c-0.78,0-1.287,0.587-1.551,1.793c-0.124,0.62-0.187,1.601-0.187,2.913c0,2.751,0.464,4.146,1.381,4.146
				c0.429,0,0.814-0.353,1.144-1.049c0.275-0.597,0.415-1.17,0.415-1.702v-4.017c0-0.412-0.115-0.852-0.342-1.306
				C27.453,30.56,27.164,30.298,26.845,30.298z"/>
			<path fill="#FFFFFF" d="M30.325,34.492c0,1.176-0.338,2.372-1.013,3.588c-0.787,1.423-1.728,2.134-2.825,2.134
				c-1.009,0-1.895-0.671-2.658-2.014c-0.668-1.16-1.001-2.293-1.001-3.397c0-1.081,0.373-2.257,1.12-3.528
				c0.818-1.446,1.724-2.169,2.718-2.169c0.993,0,1.875,0.668,2.646,2.003C29.987,32.291,30.325,33.419,30.325,34.492z
				 M28.192,36.399v-4.017c0-0.437-0.119-0.894-0.358-1.371c-0.278-0.572-0.608-0.858-0.989-0.858c-0.85,0-1.415,0.636-1.693,1.907
				c-0.127,0.636-0.191,1.617-0.191,2.944c0,2.861,0.508,4.291,1.526,4.291c0.493,0,0.918-0.377,1.275-1.132
				C28.049,37.543,28.192,36.955,28.192,36.399z"/>
			<path fill="#FFFFFF" d="M33.494,42.234l0.11-0.061c2.308-1.293,3.478-3.778,3.478-7.383c0-1.156-0.22-2.194-0.653-3.083
				c-0.535-1.092-1.287-1.623-2.301-1.623c-0.218,0-0.725,0.433-0.725,4.444c0,0.752,0.02,1.667,0.059,2.718
				c0.054,1.43,0.06,1.637,0.06,1.668c0,0.237-0.031,0.651-0.096,1.267l-0.014,0.13h-2.028v-0.872c0-0.149,0.033-0.355,0.099-0.63
				c0.096-0.352,0.151-0.557,0.167-0.621c0.273-1.626,0.413-2.954,0.413-3.934c0-0.743-0.196-2.368-0.582-4.829l-0.026-0.168h3.018
				c1.538,0,2.745,0.623,3.588,1.851c0.721,1.07,1.086,2.42,1.086,4.016c0,1.178-0.227,2.036-0.677,2.559l0.172-0.006l-0.091,0.211
				c-0.598,1.38-1.17,2.417-1.7,3.084c-0.815,0.978-1.825,1.596-3.004,1.84l-0.12,0.025L33.494,42.234z"/>
			<path fill="#FFFFFF" d="M39.003,35.124c0,1.375-0.306,2.281-0.918,2.718l0.334-0.012c-0.596,1.375-1.156,2.392-1.681,3.052
				c-0.795,0.953-1.768,1.55-2.92,1.788l-0.143-0.37c2.368-1.327,3.552-3.83,3.552-7.509c0-1.184-0.223-2.233-0.667-3.147
				c-0.556-1.136-1.367-1.704-2.432-1.704c-0.58,0-0.87,1.53-0.87,4.589c0,0.755,0.02,1.663,0.06,2.724
				c0.04,1.061,0.06,1.615,0.06,1.663c0,0.23-0.032,0.648-0.095,1.252h-1.752v-0.727c0-0.135,0.032-0.334,0.095-0.596
				c0.095-0.35,0.151-0.556,0.167-0.62c0.278-1.653,0.417-2.976,0.417-3.969c0-0.755-0.195-2.372-0.584-4.851h2.849
				c1.494,0,2.65,0.596,3.469,1.788C38.649,32.239,39.003,33.55,39.003,35.124z"/>
			<path fill="#FFFFFF" d="M40.3,40.299v-0.913l0.011-0.026c0.341-0.829,0.514-2.146,0.514-3.914c0-0.84-0.068-1.858-0.202-3.023
				c-0.157-1.349-0.343-2.32-0.552-2.887l-0.06-0.163l0.171-0.03c1.076-0.191,1.935-0.288,2.552-0.288
				c0.536,0,0.769,0.056,0.886,0.125c0.385-0.13,0.76-0.196,1.117-0.196c0.836,0,1.277,0.425,1.277,1.23
				c0,0.356-0.303,0.9-0.927,1.665l-0.122,0.15l-0.11-0.16c-0.262-0.38-0.521-0.772-0.772-1.164
				c-0.249-0.293-0.65-0.442-1.194-0.442c-0.219,0-0.523,0.07-0.632,0.679c-0.027,0.11-0.057,0.405-0.057,1.238v3.898
				c0,1.229,0.195,2.588,0.579,4.039l0.048,0.182H40.3z"/>
			<path fill="#FFFFFF" d="M45.868,30.213c0,0.318-0.298,0.842-0.894,1.573c-0.262-0.381-0.521-0.771-0.775-1.168
				c-0.278-0.334-0.715-0.501-1.311-0.501c-0.421,0-0.679,0.266-0.775,0.799c-0.04,0.159-0.06,0.58-0.06,1.263v3.898
				c0,1.248,0.195,2.606,0.584,4.077h-2.193v-0.739c0.35-0.85,0.524-2.173,0.524-3.969c0-0.85-0.068-1.863-0.203-3.039
				c-0.159-1.367-0.346-2.34-0.56-2.92c1.073-0.191,1.915-0.286,2.527-0.286c0.493,0,0.779,0.048,0.858,0.143
				c0.397-0.143,0.779-0.214,1.144-0.214C45.491,29.128,45.868,29.49,45.868,30.213z"/>
			<path fill="#FFFFFF" d="M46.975,40.37v-0.932c0-0.233,0.088-0.603,0.27-1.132c0.169-0.491,0.254-0.86,0.254-1.097l0.012-1.455
				c0.031-1.468,0.012-2.548-0.059-3.214c-0.102-1.173-0.351-2.217-0.74-3.104l-0.089-0.203h2.902l-0.063,0.191
				c-0.493,1.488-0.744,3.117-0.744,4.841c0,0.667,0.06,1.56,0.178,2.654c0.14,1.293,0.302,2.108,0.482,2.423l0.019,0.032
				l0.015,0.995H46.975z M48.192,27.318c-0.314,0-0.58-0.167-0.79-0.496c-0.174-0.277-0.261-0.572-0.261-0.877
				c0-0.351,0.117-0.672,0.349-0.956c0.238-0.293,0.535-0.441,0.881-0.441c0.312,0,0.57,0.197,0.767,0.586
				c0.18,0.357,0.272,0.69,0.272,0.989c0,0.333-0.121,0.619-0.36,0.849C48.812,27.202,48.524,27.318,48.192,27.318z"/>
			<path fill="#FFFFFF" d="M49.325,29.378c-0.501,1.51-0.751,3.139-0.751,4.887c0,0.675,0.06,1.566,0.179,2.67
				c0.143,1.319,0.31,2.146,0.501,2.479l0.012,0.811H47.12v-0.787c0-0.215,0.087-0.576,0.262-1.085
				c0.175-0.509,0.262-0.89,0.262-1.144l0.012-1.454c0.032-1.478,0.012-2.555-0.06-3.23c-0.103-1.192-0.354-2.241-0.751-3.147
				H49.325z M49.265,26.124c0,0.294-0.105,0.542-0.316,0.745c-0.211,0.203-0.463,0.304-0.757,0.304
				c-0.262,0-0.485-0.143-0.667-0.429c-0.159-0.254-0.238-0.52-0.238-0.799c0-0.318,0.105-0.606,0.316-0.864
				c0.21-0.258,0.467-0.387,0.769-0.387c0.254,0,0.467,0.169,0.638,0.507C49.18,25.538,49.265,25.846,49.265,26.124z"/>
			<path fill="#FFFFFF" d="M50.245,41.011c0.167-0.63,0.449-1.57,0.836-2.796l0.065-0.205l0.166,0.137
				c0.403,0.332,0.814,0.655,1.222,0.961c0.386,0.289,0.846,0.436,1.367,0.436c0.6,0,1.082-0.2,1.474-0.611
				c0.389-0.407,0.586-0.907,0.586-1.485c0-0.665-0.43-1.34-1.28-2.008l-2.498-1.784c-0.937-0.804-1.408-1.663-1.408-2.562
				c0-0.831,0.364-1.528,1.083-2.071c0.65-0.494,1.398-0.745,2.221-0.745c0.199,0,0.464,0.051,0.811,0.155
				c0.314,0.095,0.563,0.143,0.739,0.143c0.342,0,0.753-0.07,1.222-0.209l0.205-0.061l-0.02,0.213
				c-0.081,0.871-0.471,1.824-1.157,2.833l-0.14,0.206l-0.11-0.223c-0.295-0.598-0.548-1.016-0.753-1.243
				c-0.334-0.385-0.711-0.572-1.156-0.572c-0.387,0-0.677,0.127-0.889,0.387c-0.216,0.266-0.325,0.604-0.325,1.005
				c0,0.543,0.42,1.108,1.249,1.68c2.384,1.641,2.408,1.666,2.428,1.686c0.881,0.807,1.33,1.774,1.33,2.868
				c0,1.443-0.552,2.457-1.641,3.014c-0.788,0.406-1.973,0.612-3.523,0.612c-0.049,0-0.336,0.04-1.934,0.413l-0.235,0.055
				L50.245,41.011z"/>
			<path fill="#FFFFFF" d="M57.371,37.15c0,1.391-0.521,2.352-1.562,2.885c-0.771,0.397-1.923,0.596-3.457,0.596
				c-0.119,0-0.775,0.139-1.967,0.417c0.167-0.628,0.445-1.557,0.834-2.789c0.405,0.334,0.814,0.656,1.228,0.965
				c0.413,0.31,0.898,0.465,1.454,0.465c0.636,0,1.162-0.218,1.579-0.656c0.417-0.437,0.626-0.966,0.626-1.585
				c0-0.715-0.445-1.422-1.335-2.122c-0.834-0.596-1.669-1.192-2.503-1.788c-0.898-0.771-1.347-1.585-1.347-2.444
				c0-0.787,0.342-1.438,1.025-1.955c0.628-0.477,1.339-0.715,2.134-0.715c0.183,0,0.439,0.05,0.769,0.149
				c0.33,0.099,0.59,0.149,0.781,0.149c0.358,0,0.779-0.072,1.263-0.215c-0.08,0.85-0.457,1.772-1.132,2.765
				c-0.302-0.612-0.56-1.037-0.775-1.275c-0.358-0.413-0.779-0.62-1.263-0.62c-0.429,0-0.763,0.147-1.001,0.441
				c-0.238,0.294-0.358,0.66-0.358,1.097c0,0.596,0.437,1.196,1.311,1.8c1.581,1.089,2.384,1.645,2.408,1.669
				C56.941,35.171,57.371,36.093,57.371,37.15z"/>
			<path fill="#FFFFFF" d="M61.304,40.251c-1.013,0-1.84-0.744-2.458-2.21c-0.467-1.142-0.703-2.271-0.703-3.358
				c0-1.375,0.258-2.603,0.766-3.651c0.659-1.359,1.641-2.048,2.92-2.048c1.607,0,2.422,0.931,2.422,2.767
				c0,0.927-0.269,1.397-0.801,1.397c-0.208,0-0.51-0.03-0.921-0.091c-0.392-0.058-0.688-0.088-0.879-0.088
				c-0.869,0-1.905,0.122-1.905,0.701c0,1.04,0.196,2.011,0.584,2.885c0.496,1.121,1.162,1.666,2.037,1.666
				c0.153,0,0.38-0.018,0.674-0.053c0.311-0.037,0.538-0.055,0.697-0.055h0.12l0.111,0.593l-0.078,0.053
				C61.954,40.082,61.491,40.251,61.304,40.251z M61.566,31.677c0.785-0.03,0.785-0.347,0.785-0.451
				c0-0.207-0.074-0.405-0.226-0.603c-0.143-0.186-0.299-0.277-0.475-0.277c-0.329,0-0.611,0.161-0.862,0.491
				c-0.19,0.246-0.333,0.528-0.427,0.84H61.566z"/>
			<path fill="#FFFFFF" d="M64.105,31.75c0,0.834-0.219,1.252-0.656,1.252c-0.199,0-0.499-0.03-0.9-0.089
				c-0.401-0.06-0.701-0.089-0.9-0.089c-1.367,0-2.05,0.282-2.05,0.846c0,1.065,0.199,2.046,0.596,2.944
				c0.516,1.168,1.24,1.752,2.169,1.752c0.159,0,0.389-0.018,0.691-0.054c0.302-0.036,0.528-0.054,0.679-0.054l0.072,0.381
				c-1.43,0.977-2.265,1.466-2.503,1.466c-0.954,0-1.728-0.707-2.324-2.122c-0.461-1.128-0.691-2.229-0.691-3.302
				c0-1.359,0.25-2.555,0.751-3.588c0.636-1.311,1.565-1.967,2.789-1.967C63.346,29.128,64.105,30.002,64.105,31.75z M62.496,31.226
				c0-0.238-0.085-0.469-0.256-0.691c-0.171-0.222-0.368-0.334-0.59-0.334c-0.374,0-0.699,0.183-0.977,0.548
				c-0.238,0.31-0.405,0.668-0.501,1.073c0.469,0,0.934,0,1.395,0C62.186,31.798,62.496,31.6,62.496,31.226z"/>
		</g>
	</g>
	<ellipse fill="#FFFFFF" cx="18.155" cy="34.46" rx="0.788" ry="2.392"/>
	<ellipse fill="#FFFFFF" cx="26.771" cy="34.46" rx="0.788" ry="2.392"/>
	<path fill="#FFFFFF" d="M27.608,16.872c0.015-0.026,0.03-0.052,0.045-0.078c0.055-0.011,0.101-0.001,0.145,0.078
		C27.726,16.872,27.667,16.872,27.608,16.872z"/>
	<path fill="#3F3F3F" d="M2.104,13.209c0-0.077,0-0.155,0-0.232c0.091-0.025,0.045,0.068,0.079,0.092c0,0.032,0,0.063,0,0.095
		C2.158,13.179,2.131,13.194,2.104,13.209z"/>
	<path fill="#010202" d="M0.912,14.106c0.05,0.034,0.09,0.075,0.098,0.138c-0.017,0-0.034,0.001-0.051,0.001
		c-0.037-0.049-0.075-0.098-0.112-0.147C0.871,14.083,0.893,14.085,0.912,14.106z"/>
	<path fill="#FFFFFF" d="M2.625,21.261c-0.02,0.023-0.036,0.051-0.06,0.068c-0.062,0.043-0.126,0.129-0.199,0.091
		c-0.089-0.046-0.094-0.149-0.06-0.271c0.081,0.099,0.164,0.133,0.26,0.056C2.597,21.211,2.616,21.23,2.625,21.261z"/>
	<path fill="#FFFFFF" d="M2.625,21.261c-0.02-0.019-0.039-0.037-0.059-0.056c0.019-0.049,0.038-0.099,0.057-0.148
		c0.022-0.056,0.031-0.122,0.109-0.13c0.034-0.004,0.06,0.011,0.071,0.044c0.023,0.066-0.005,0.12-0.048,0.166
		C2.714,21.18,2.668,21.22,2.625,21.261z"/>
	<path fill="#7A7B7B" d="M2.184,13.068c-0.026-0.031-0.053-0.061-0.079-0.092c-0.013-0.067-0.021-0.134,0.017-0.209
		C2.154,12.873,2.197,12.964,2.184,13.068z"/>
	<path fill="#444444" d="M0.912,14.106c-0.022-0.002-0.043-0.005-0.065-0.007c-0.031-0.044-0.061-0.088-0.092-0.132
		c0.021-0.024,0.043-0.025,0.067-0.005C0.866,14.002,0.918,14.036,0.912,14.106z"/>
	<path fill="#4E4E4E" d="M0.822,13.962c-0.022,0.002-0.044,0.003-0.067,0.005c-0.026-0.03-0.081-0.073-0.031-0.099
		C0.801,13.83,0.803,13.915,0.822,13.962z"/>
	<path fill="#FFFFFF" d="M28.364,20.641c-0.166,0.088-0.337,0.018-0.506,0.018c-0.097,0-0.18-0.042-0.275,0.088
		c-0.076,0.104-0.289,0.078-0.446,0.081c-0.839,0.016-1.678,0.032-2.517,0.05c-0.3,0.006-0.568,0.101-0.796,0.3
		c-0.17,0.149-0.175,0.241,0.008,0.373c0.606,0.436,1.294,0.61,2.033,0.609c0.479-0.001,0.954-0.056,1.431-0.093
		c0.13-0.01,0.326-0.099,0.338,0.167c0.001,0.029,0.08,0.054,0.146,0.095c-0.536,0.019-1.057-0.024-1.545,0.108
		c-0.528,0.143-0.99,0.12-1.499-0.102c-0.523-0.229-1.107-0.275-1.685-0.223c-0.095,0.009-0.184,0.001-0.226-0.084
		c-0.417-0.837-1.179-1.322-1.884-1.867c-0.478-0.37-0.902-0.802-1.34-1.218c-0.253-0.241-0.521-0.422-0.896-0.374
		c-0.206,0.027-0.403-0.046-0.596-0.111c-0.091-0.031-0.181-0.05-0.276-0.041c-0.12,0.012-0.157,0.063-0.077,0.167
		c0.071,0.091,0.144,0.18,0.222,0.278c-0.227,0.046-0.385-0.011-0.5-0.17c-0.104-0.144-0.112-0.287,0.001-0.432
		c0.075-0.097,0.07-0.203,0.029-0.311c-0.077-0.205-0.179-0.231-0.311-0.057c-0.094,0.125-0.206,0.123-0.332,0.114
		c-0.133-0.009-0.267-0.038-0.397-0.024c-0.32,0.037-0.414,0.3-0.235,0.623c-0.339-0.031-0.488-0.232-0.409-0.551
		c0.061-0.247-0.02-0.442-0.221-0.535c-0.2-0.092-0.323-0.046-0.443,0.15c-0.377,0.617-0.806,1.195-1.321,1.705
		c-0.072,0.071-0.158,0.129-0.236,0.193c-0.133,0.11-0.26,0.104-0.365-0.033c-0.103-0.134-0.2-0.13-0.34-0.046
		c-0.263,0.159-0.368,0.125-0.531-0.143c-0.09-0.148-0.189-0.279-0.338-0.382c-0.193-0.133-0.229-0.368-0.285-0.576
		c-0.144-0.539-0.204-1.093-0.242-1.648c-0.013-0.187-0.084-0.264-0.275-0.327c-1.191-0.39-2.287-0.09-3.355,0.431
		c-0.561,0.274-1.071,0.621-1.451,1.13c-0.092,0.123-0.289,0.282,0.062,0.339c0.096,0.016,0.1,0.111,0.085,0.193
		c-0.023,0.124-0.071,0.239-0.138,0.346c-0.385,0.611-0.714,1.255-0.966,1.926c-0.183,0.488-0.433,0.931-0.676,1.384
		c-0.228,0.426-0.138,0.888-0.135,1.339c0.004,0.66,0.201,1.279,0.389,1.901c0.092,0.304,0.175,0.621,0.018,0.936
		c-0.047,0-0.094,0-0.141,0c-0.112-0.054-0.18-0.148-0.234-0.254c-0.086-0.168-0.19-0.324-0.279-0.49
		c-0.032-0.059-0.054-0.148-0.137-0.145c-0.074,0.003-0.074,0.09-0.102,0.143c-0.076,0.143-0.169,0.244-0.354,0.187
		c-0.125-0.039-0.203,0.056-0.288,0.123C3.103,26.239,2.98,26.206,2.9,25.662c-0.128-0.865-0.457-1.657-0.811-2.444
		c-0.113-0.251-0.288-0.466-0.441-0.693c-0.14-0.206-0.213-0.414-0.113-0.661c0.06-0.148-0.006-0.289-0.051-0.432
		c-0.161-0.51-0.437-0.952-0.789-1.348c-0.282-0.318-0.449-0.692-0.575-1.09c0-0.078,0-0.157,0-0.235
		c0.023-0.024,0.016-0.07,0.037-0.083c0.284-0.172,0.225-0.452,0.228-0.713c0.002-0.126-0.002-0.252,0.058-0.368
		c0.022-0.042,0.051-0.083,0.107-0.076c0.056,0.006,0.079,0.051,0.086,0.098c0.026,0.186,0.06,0.371,0.066,0.56
		c0.011,0.347,0.079,0.685,0.213,1.006c0.089,0.215,0.193,0.258,0.377,0.131c0.393-0.271,0.852-0.819,0.712-1.455
		c-0.059-0.267-0.104-0.539-0.179-0.802c-0.099-0.347-0.196-0.694-0.248-1.052c-0.029-0.203-0.074-0.411-0.177-0.583
		c-0.226-0.376-0.239-0.826-0.452-1.203c-0.016-0.027-0.012-0.061-0.008-0.092c0.007-0.024,0.02-0.044,0.039-0.059
		c0.118-0.103,0.066-0.234,0.046-0.352c-0.05-0.294-0.126-0.582-0.187-0.874c-0.024-0.117-0.084-0.296,0.058-0.328
		c0.137-0.031,0.138,0.158,0.164,0.265c0.137,0.564,0.359,1.103,0.473,1.687c0.262-0.445,0.426-0.914,0.537-1.403
		c0.032-0.042,0.07-0.071,0.127-0.051c0.107,0.313,0.124,0.632-0.001,0.94c-0.401,0.991-0.319,1.979-0.011,2.971
		c0.13,0.418,0.305,0.822,0.306,1.274c0.002,0.538-0.139,0.996-0.559,1.363c-0.31,0.271-0.297,0.289-0.118,0.661
		c0.16,0.332,0.316,0.667,0.449,1.01c0.09,0.232,0.276,0.193,0.441,0.22c0.154,0.024,0.157-0.128,0.204-0.217
		c0.078-0.145,0.141-0.3,0.246-0.428C3.59,20.28,3.689,19.649,3.727,19c0.009-0.156,0.016-0.312,0.036-0.468
		c0.031-0.235,0.027-0.47-0.068-0.695c-0.034-0.082-0.064-0.169,0.024-0.235c0.091-0.068,0.177-0.028,0.26,0.027
		c0.08,0.053,0.117,0.146,0.196,0.205c0.101-0.038,0.099-0.136,0.115-0.213c0.197-0.96,0.402-1.918,0.479-2.899
		c0.098-1.242,0.057-2.474-0.229-3.692c-0.034-0.143-0.014-0.255,0.083-0.388c0.191-0.261,0.158-0.584,0.134-0.887
		c-0.085-1.094-0.238-2.18-0.364-3.269C4.374,6.321,4.33,6.163,4.264,6.012c-0.069-0.158-0.148-0.31-0.15-0.49
		C4.113,5.425,4.048,5.347,3.99,5.273C3.795,5.027,3.594,4.786,3.372,4.564C2.792,3.98,2.225,3.383,1.698,2.751
		c-0.21-0.252-0.389-0.52-0.525-0.828C0.995,1.522,0.709,1.179,0.406,0.858C0.374,0.824,0.332,0.799,0.304,0.761
		C0.245,0.683,0.191,0.598,0.277,0.509c0.076-0.079,0.163-0.04,0.235,0.01c0.156,0.108,0.274,0.256,0.403,0.393
		c0.454,0.484,0.753,1.081,1.168,1.591C2.584,3.12,3.156,3.666,3.75,4.192c0.302,0.267,0.617-1.753,0.848-2.297
		C4.694,1.67,4.914,4.632,4.958,4.58c0.522-0.626,1.071-1.23,1.526-1.91c0.048-0.072,0.089-0.149,0.113-0.232
		c0.141-0.506,0.279-1.013,0.349-1.536c0.02-0.15-0.03-0.297-0.006-0.446c0.012-0.078,0.025-0.172,0.112-0.189
		c0.085-0.017,0.077,0.08,0.098,0.133c0.028,0.073,0.073,0.062,0.132,0.045c0.195-0.057,0.181,0.062,0.133,0.177
		c-0.12,0.29-0.23,0.583-0.311,0.887c-0.054,0.205-0.09,0.412-0.14,0.669C7.108,2.074,7.18,1.958,7.264,1.857
		c0.336-0.402,0.671-0.798,0.909-1.279C8.295,0.333,8.55,0.128,8.825,0c0.039,0.01,0.071,0.025,0.054,0.076
		C8.546,0.808,8.088,1.459,7.591,2.086C6.963,2.879,6.405,3.724,5.752,4.497C5.631,4.641,5.58,4.791,5.686,4.968
		c0.066,0.111,0.039,0.195-0.087,0.238C5.483,5.245,5.422,5.311,5.491,5.432C5.569,5.57,5.499,5.655,5.393,5.727
		C5.276,5.806,5.227,5.91,5.26,6.049c0.201,0.836,0.194,1.695,0.275,2.545c0.033,0.341,2.79-1.68,2.437-1.326
		c-0.25,0.25-2.27,3.055-2.208,3.405c0.032,0.182,0.1,0.347,0.223,0.484c0.192,0.215,0.206,0.459,0.085,0.699
		c-0.212,0.418-0.269,0.859-0.267,1.319c0.004,1.004-0.023,2.008,0.045,3.011c0.01,0.148,0.035,0.296,0.053,0.443
		C5.914,16.72,5.9,16.843,6,16.871c0.101,0.029,0.151-0.093,0.214-0.157c0.874-0.887,1.368-1.986,1.771-3.141
		c0.214-0.612,0.498-1.198,0.784-1.78c0.037-0.076,0.081-0.148,0.149-0.27c-0.015,0.246-0.097,0.417-0.151,0.595
		c-0.283,0.935-0.571,1.869-0.859,2.803c-0.036,0.118-0.052,0.194,0.097,0.28c0.144,0.082,0.29,0.245,0.332,0.4
		c0.059,0.218,0.153,0.145,0.265,0.097c0.414-0.176,0.854-0.249,1.293-0.329c0.471-0.086,0.896,0.03,1.316,0.227
		c0.292,0.137,0.307,0.126,0.338-0.188c0.07-0.706,0.25-1.385,0.488-2.05c0.103-0.288,0.158-0.569,0.048-0.869
		c-0.069-0.187-0.025-0.363,0.076-0.537c0.318-0.55,0.69-1.064,1.059-1.58c0.188-0.262,0.427-0.449,0.734-0.56
		c0.256-0.093,0.262-0.144,0.084-0.333c-0.126-0.134-0.286-0.263-0.075-0.453c-0.145-0.486,0.168-0.931,0.124-1.409
		c-0.011-0.113,0.012-0.177,0.166-0.164c0.172,0.015,0.217-0.158,0.265-0.284c0.146-0.381,0.106-0.768,0.031-1.159
		c-0.052-0.271-0.162-0.536-0.132-0.827c0.03,0.005,0.047,0.003,0.053,0.01c0.264,0.308,0.264,0.308,0.409-0.066
		c0.019-0.05,0.041-0.099,0.079-0.19c0.098,0.227,0.177,0.422,0.267,0.612c0.303,0.642,0.631,0.823,1.308,0.612
		c0.339-0.106,0.73-0.122,1.003-0.412c0.087-0.092,0.126,0.006,0.127,0.076c0.003,0.164,0.105,0.193,0.235,0.192
		c0.384-0.003,0.768-0.012,1.152-0.008c0.121,0.001,0.137-0.082,0.172-0.157c0.122-0.259,0.219-0.531,0.381-0.79
		c0.108,0.109,0.102,0.245,0.177,0.357c0.151-0.104,0.304-0.209,0.492-0.338c-0.028,0.205-0.058,0.375-0.075,0.547
		c-0.033,0.343-0.062,0.688,0.019,1.029c0.054,0.228,0.17,0.389,0.439,0.354c0.059-0.008,0.127-0.005,0.119,0.069
		c-0.032,0.277,0.074,0.526,0.14,0.783c0.026,0.103-0.003,0.203-0.031,0.301c-0.046,0.161-0.077,0.316,0.024,0.474
		c0.077,0.12-0.015,0.207-0.088,0.288c-0.158,0.174-0.231,0.38-0.221,0.611c0.007,0.165,0.066,0.286,0.253,0.345
		c0.342,0.107,0.612,0.665,0.559,1.123c-0.092,0.792-0.382,1.507-0.81,2.179c-0.682,1.069-1.485,2.038-2.352,2.959
		c-0.096,0.102-0.188,0.212-0.264,0.329c-0.145,0.223-0.098,0.341,0.157,0.409c0.136,0.036,0.276,0.076,0.414,0.076
		c0.27,0.001,0.482,0.172,0.736,0.22c0.124,0.023,0.117,0.156,0.118,0.255c0.002,0.199,0.08,0.359,0.209,0.508
		c0.181,0.208,0.38,0.296,0.663,0.216c0.954-0.27,1.94-0.243,2.918-0.274c0.621-0.02,1.2-0.148,1.761-0.425
		c0.601-0.296,1.199-0.609,1.854-0.786c0.281-0.076,0.558-0.057,0.839-0.022c0.016,0.043-0.009,0.064-0.045,0.078
		c-0.711,0.062-1.338,0.37-1.954,0.693c-0.401,0.21-0.779,0.463-1.217,0.599c-0.079,0.024-0.174,0.054-0.18,0.161
		c-0.005,0.102,0.075,0.151,0.153,0.189c0.393,0.193,0.785,0.388,1.182,0.57c0.331,0.152,0.549,0.393,0.652,0.743
		c-0.035,0.038-0.052-0.003-0.071-0.018c-0.018-0.014-0.03-0.036-0.048-0.052c-0.087-0.078-0.164-0.193-0.266-0.226
		c-0.525-0.168-0.943-0.549-1.465-0.722c-0.155-0.051-0.296-0.135-0.422-0.248c-0.153-0.137-0.359-0.114-0.54-0.116
		c-0.873-0.01-1.733,0.126-2.589,0.281c-0.008,0.001-0.015,0.005-0.022,0.008c-0.518,0.161-0.534,0.213-0.144,0.571
		c0.617,0.568,1.244,1.125,1.909,1.639c0.283,0.219,0.578,0.266,0.894,0.087c0.673-0.382,1.386-0.42,2.138-0.312
		c0.676,0.098,1.363,0.014,2.044,0.01c0.234-0.002,0.469-0.017,0.702,0.01C28.364,20.61,28.364,20.626,28.364,20.641z"/>
	<path fill="#E53423" d="M18.43,7.437c0,0,0.797-0.761,0.87,0.29c0,0,0,0.006,0.001,0.009C19.367,8.77,18.43,7.437,18.43,7.437z"/>
	<path fill="#E53423" d="M16.64,7.437c0,0-0.797-0.761-0.87,0.29c0,0.003,0,0.006-0.001,0.009C15.704,8.77,16.64,7.437,16.64,7.437z
		"/>
</g>
</svg>
