<?xml version="1.0" encoding="utf-8"?>
<!-- Generator: Adobe Illustrator 17.0.0, SVG Export Plug-In . SVG Version: 6.00 Build 0)  -->
<!DOCTYPE svg PUBLIC "-//W3C//DTD SVG 1.1//EN" "http://www.w3.org/Graphics/SVG/1.1/DTD/svg11.dtd">
<svg version="1.1" id="Layer_1" xmlns="http://www.w3.org/2000/svg" xmlns:xlink="http://www.w3.org/1999/xlink" x="0px" y="0px"
	 width="200px" height="190px" viewBox="0 0 171.796 160.5" enable-background="new 0 0 171.796 160.5" xml:space="preserve">
<g>
	<path fill="#F6F6F6" d="M171.796,149.204c0,6.239-5.057,11.296-11.296,11.296H11.296C5.057,160.5,0,155.443,0,149.204V11.296
		C0,5.057,5.057,0,11.296,0H160.5c6.239,0,11.296,5.057,11.296,11.296V149.204z"/>
	<path fill="#7DBB48" d="M62.657,148.737c-0.062-0.31-0.201-1.081-0.416-2.312h-3.696c0.362,2.447,0.675,4.123,0.94,5.025
		c0.711,2.381,1.69,3.582,2.935,3.602c0.79,0.01,1.423-0.311,1.897-0.963c0.672-0.939,1.156-1.853,1.453-2.742
		c0.515-1.554,1.028-3.195,1.541-4.921h-4.049C62.901,147.818,62.7,148.59,62.657,148.737z"/>
	<path fill="#7DBB48" d="M54.163,147.892c-0.082-0.537-0.157-1.022-0.225-1.467H49.82c0.323,1.892,0.58,3.221,0.771,3.987
		c0.336,1.354,0.776,2.461,1.319,3.32c0.514,0.85,1.003,1.265,1.468,1.245c0.82-0.03,1.438-0.376,1.853-1.038
		c0.296-0.247,0.519-0.578,0.667-0.993c0.988-2.579,1.739-4.481,2.253-5.707c0.047-0.141,0.168-0.415,0.357-0.815h-3.821
		C54.507,146.939,54.332,147.43,54.163,147.892z"/>
	<path fill="#7DBB48" d="M71.18,152.473c0,0.593,0.193,1.077,0.578,1.453c0.385,0.375,0.875,0.563,1.467,0.563
		c1.364,0,2.046-0.939,2.046-2.816v-5.247H71.18V152.473z"/>
	<path fill="#7DBB48" d="M79.11,152.947c0,0.563,0.173,1.092,0.519,1.586c0.445,0.632,1.057,0.949,1.838,0.949
		c0.662,0,1.166-0.252,1.512-0.756c0.247-0.366,0.371-0.766,0.371-1.201l0.015-6.241c2.5,2.421,4.086,3.908,4.758,4.462
		c2.253,1.848,4.086,2.772,5.499,2.772c0.652,0,1.161-0.267,1.527-0.8c0.267-0.395,0.4-0.805,0.4-1.23
		c0-0.958-0.529-1.606-1.586-1.942c-0.583-0.188-1.127-0.464-1.631-0.83c-1.008-0.751-2.144-1.71-3.409-2.876
		c-0.148-0.138-0.293-0.276-0.441-0.415H79.22C79.147,149.179,79.11,151.355,79.11,152.947z"/>
	<path fill="#7DBB48" d="M106.577,146.973c0,0.959,0.074,1.982,0.222,3.068c0.138,1.028,0.277,2.051,0.415,3.068
		c0.138,1.195,0.815,1.793,2.031,1.793c0.583,0,1.072-0.183,1.467-0.548c0.395-0.366,0.593-0.825,0.593-1.378
		c0-0.761-0.106-1.749-0.319-2.965c-0.212-1.215-0.319-2.209-0.319-2.979c0-0.134,0.003-0.338,0.008-0.607h-4.085
		C106.582,146.657,106.577,146.84,106.577,146.973z"/>
	<path fill="#7DBB48" d="M97.061,150.36c0,0.282,0.03,0.707,0.089,1.276c0.059,0.568,0.089,0.994,0.089,1.275
		c0,0.574,0.192,1.049,0.578,1.426c0.385,0.377,0.874,0.566,1.467,0.566s1.084-0.19,1.475-0.569c0.39-0.38,0.585-0.858,0.585-1.435
		c0-0.283,0.032-0.711,0.096-1.283c0.064-0.572,0.096-1,0.096-1.283c0-0.435,0.028-0.88,0.083-1.336
		c0.064-0.557,0.105-1.002,0.124-1.336c0.119-0.431,0.25-0.842,0.392-1.235h-4.876C97.128,148.099,97.061,149.412,97.061,150.36z"/>
	<path fill="#7DBB48" d="M122.957,147.181c-0.05,1.166-0.435,2.09-1.156,2.772c-0.632,0.583-1.379,0.874-2.238,0.874
		c-0.711,0-1.334-0.252-1.868-0.756c-0.672-0.632-1.008-1.541-1.008-2.727c0-0.316,0.019-0.622,0.057-0.919h-4.15
		c-0.017,0.302-0.022,0.607-0.013,0.919c0.069,2.293,0.825,4.126,2.268,5.499c1.314,1.255,2.885,1.883,4.714,1.883
		c2.312,0,4.155-0.904,5.529-2.713c1.174-1.553,1.779-3.418,1.829-5.588h-3.953C122.969,146.668,122.967,146.917,122.957,147.181z"
		/>
	<path fill="#7DBB48" d="M142.137,148.737c-0.062-0.31-0.201-1.081-0.416-2.312h-3.695c0.362,2.447,0.675,4.123,0.94,5.025
		c0.711,2.381,1.69,3.582,2.935,3.602c0.79,0.01,1.423-0.311,1.897-0.963c0.672-0.939,1.156-1.853,1.452-2.742
		c0.515-1.554,1.028-3.195,1.541-4.921h-4.049C142.382,147.818,142.18,148.59,142.137,148.737z"/>
	<path fill="#7DBB48" d="M133.644,147.892c-0.082-0.537-0.157-1.022-0.225-1.467H129.3c0.323,1.892,0.58,3.221,0.771,3.987
		c0.336,1.354,0.776,2.461,1.319,3.32c0.514,0.85,1.003,1.265,1.467,1.245c0.82-0.03,1.438-0.376,1.853-1.038
		c0.296-0.247,0.519-0.578,0.667-0.993c0.988-2.579,1.739-4.481,2.253-5.707c0.047-0.141,0.168-0.415,0.357-0.815h-3.821
		C133.987,146.939,133.812,147.43,133.644,147.892z"/>
	<g>
		<path fill="#1D672E" d="M68.897,140.792c0.049-0.188,0.074-0.331,0.074-0.43c0-0.543-0.215-0.998-0.645-1.364
			c-0.43-0.365-0.926-0.548-1.49-0.548c-1.018,0-1.636,0.425-1.853,1.275c-0.598,2.329-1.08,4.208-1.448,5.637h4.086
			C68.048,143.897,68.473,142.376,68.897,140.792z"/>
		<path fill="#1D672E" d="M61.916,144.557c-0.277-1.611-0.539-2.92-0.786-3.928c-0.346-1.433-1.067-2.149-2.164-2.149
			c-1.117,0-1.878,0.642-2.283,1.927c-0.584,1.838-1.127,3.488-1.629,4.955h7C62.011,145.107,61.965,144.84,61.916,144.557z"/>
		<path fill="#1D672E" d="M53.57,144.113c-0.03-0.208-0.104-0.894-0.222-2.06c-0.089-0.81-0.198-1.492-0.326-2.046
			c-0.247-1.057-0.904-1.586-1.971-1.586c-0.573,0-1.065,0.18-1.475,0.541c-0.41,0.361-0.615,0.813-0.615,1.356
			c0,0.504,0.069,1.201,0.207,2.09c0.17,1.086,0.327,2.069,0.474,2.954h4.13C53.693,144.859,53.625,144.439,53.57,144.113z"/>
		<path fill="#1D672E" d="M75.271,131.973c0-0.573-0.188-1.035-0.563-1.386c-0.376-0.351-0.855-0.526-1.438-0.526
			c-0.583,0-1.072,0.168-1.467,0.504c-0.415,0.366-0.623,0.835-0.623,1.408v1.383v0.49v11.516h4.091V131.973z"/>
		<path fill="#1D672E" d="M85.677,143.786c1.927-1.838,3.76-3.701,5.499-5.588c2.352-2.569,3.528-4.16,3.528-4.773
			c0-0.563-0.21-1.042-0.63-1.438c-0.42-0.395-0.911-0.593-1.475-0.593c-0.593,0-1.117,0.247-1.571,0.741
			c-4.437,4.842-7.001,7.589-7.693,8.241c0.02-0.642,0.084-1.843,0.193-3.602c0.089-1.512,0.133-2.713,0.133-3.602
			c0-0.553-0.195-1.028-0.585-1.423c-0.39-0.395-0.882-0.593-1.475-0.593c-0.593,0-1.087,0.198-1.482,0.593
			c-0.395,0.395-0.593,0.87-0.593,1.423c0,2.194-0.069,5.489-0.207,9.887c-0.025,0.804-0.048,1.571-0.069,2.302h8.103
			C86.793,144.837,86.233,144.312,85.677,143.786z"/>
		<path fill="#1D672E" d="M103.655,143.522c0.814-1.088,1.645-1.633,2.491-1.633c0.395,0,0.593,0.41,0.593,1.23
			c0,0.178-0.01,0.408-0.03,0.689c-0.02,0.282-0.03,0.457-0.03,0.526c0,0.215-0.012,0.558-0.036,1.027h4.039v-0.345
			c0-2.085-0.237-3.651-0.712-4.699c-0.711-1.561-2.001-2.342-3.869-2.342c-1.601,0-3.123,0.726-4.566,2.179l-0.015-0.163
			c-0.089-1.551-0.781-2.327-2.075-2.327c-0.583,0-1.074,0.184-1.475,0.551c-0.4,0.367-0.6,0.833-0.6,1.396
			c0,0.292,0.017,0.737,0.052,1.336c0.035,0.599,0.052,1.049,0.052,1.351c0,0.776-0.045,1.8-0.135,3.063h5.231
			C102.89,144.677,103.251,144.063,103.655,143.522z"/>
		<path fill="#1D672E" d="M117.576,144.053c0.701-1.117,1.66-1.67,2.876-1.66c1.414,0.008,2.23,1,2.453,2.969h4
			c-0.116-1.764-0.631-3.267-1.546-4.51c-1.166-1.581-2.737-2.372-4.714-2.372c-2.678,0-4.768,1.008-6.27,3.024
			c-0.869,1.174-1.423,2.46-1.662,3.858h4.264C117.122,144.897,117.319,144.459,117.576,144.053z"/>
		<path fill="#1D672E" d="M133.051,144.113c-0.029-0.208-0.104-0.894-0.222-2.06c-0.089-0.81-0.198-1.492-0.326-2.046
			c-0.247-1.057-0.904-1.586-1.971-1.586c-0.573,0-1.065,0.18-1.475,0.541c-0.41,0.361-0.615,0.813-0.615,1.356
			c0,0.504,0.069,1.201,0.207,2.09c0.17,1.086,0.327,2.069,0.474,2.954h4.13C133.173,144.859,133.105,144.439,133.051,144.113z"/>
		<path fill="#1D672E" d="M141.396,144.557c-0.277-1.611-0.539-2.92-0.786-3.928c-0.346-1.433-1.067-2.149-2.164-2.149
			c-1.117,0-1.878,0.642-2.283,1.927c-0.584,1.838-1.127,3.488-1.629,4.955h7C141.491,145.107,141.445,144.84,141.396,144.557z"/>
		<path fill="#1D672E" d="M148.378,140.792c0.049-0.188,0.074-0.331,0.074-0.43c0-0.543-0.215-0.998-0.645-1.364
			c-0.43-0.365-0.926-0.548-1.49-0.548c-1.018,0-1.636,0.425-1.853,1.275c-0.598,2.329-1.08,4.208-1.449,5.637h4.087
			C147.528,143.897,147.954,142.376,148.378,140.792z"/>
		<path fill="#1D672E" d="M29.291,145.254c0-2.431,0.736-4.645,2.209-6.641c1.571-2.135,3.459-3.202,5.662-3.202
			c2.263,0,3.839,0.385,4.729,1.156c0.929,0.81,1.393,2.253,1.393,4.328c0,1.6-0.279,3.088-0.834,4.466h4.417
			c0.416-1.421,0.627-2.909,0.627-4.466c0-3.172-0.86-5.549-2.579-7.13c-1.719-1.581-4.304-2.372-7.752-2.372
			c-3.587,0-6.562,1.556-8.923,4.669c-2.105,2.767-3.157,5.83-3.157,9.19c0,0.036,0.002,0.072,0.003,0.108h4.21
			C29.293,145.326,29.291,145.29,29.291,145.254z"/>
	</g>
	<path fill="#7DBB48" d="M41.282,147.537c-1.453,2.135-3.266,3.202-5.44,3.202c-1.868,0-3.414-0.494-4.64-1.482
		c-0.956-0.771-1.554-1.715-1.793-2.831h-4.262c0.265,2.327,1.338,4.264,3.223,5.81c2.055,1.68,4.546,2.52,7.471,2.52
		c3.597,0,6.512-1.576,8.745-4.729c0.813-1.145,1.453-2.346,1.924-3.602h-4.556C41.754,146.805,41.53,147.175,41.282,147.537z"/>
	<ellipse fill="#FAD3CD" cx="86.536" cy="121.363" rx="34.567" ry="4.668"/>
	<path fill="#1D672E" d="M61.319,83.013c0-9.338,2.827-17.841,8.484-25.509c6.036-8.199,13.286-12.299,21.751-12.299
		c8.692,0,14.748,1.48,18.164,4.441c3.567,3.113,5.352,8.655,5.352,16.626c0,6.146-1.072,11.863-3.204,17.156h16.968
		c1.598-5.459,2.407-11.175,2.407-17.156c0-12.185-3.302-21.314-9.907-27.388c-6.605-6.073-16.532-9.11-29.78-9.11
		c-13.779,0-25.206,5.979-34.278,17.936C49.19,58.339,45.147,70.107,45.147,83.013c0,0.14,0.009,0.275,0.01,0.415h16.172
		C61.327,83.289,61.319,83.153,61.319,83.013z"/>
	<path fill="#81B945" d="M107.383,91.782c-5.58,8.199-12.547,12.299-20.897,12.299c-7.174,0-13.116-1.898-17.823-5.694
		c-3.674-2.962-5.97-6.587-6.887-10.874H45.406c1.018,8.938,5.139,16.381,12.382,22.319c7.895,6.453,17.461,9.68,28.698,9.68
		c13.817,0,25.015-6.054,33.595-18.164c3.122-4.397,5.58-9.01,7.392-13.835H109.97C109.196,88.971,108.334,90.394,107.383,91.782z"
		/>
	<path stroke="#000000" stroke-miterlimit="10" d="M76.195,23.359v7.086c0,0,12.327,6.2,27.975,0V23.58
		C104.169,23.58,87.783,26.681,76.195,23.359z"/>
	<path fill="#F1871A" d="M68.516,115.356c0,0,2.391-4.703,5.165-0.335c0,0,2.919-3.486,5.121,0.861c0,0,2.921-3.561,4.838,0.776
		c0,0,0.091,3.372-1.528,6.531c0,0-1.401,3.092-2.988-0.484l-0.896-2.877l-0.943,2.286c0,0-1.558,3.461-3.065-0.337l-0.894-2.952
		l-0.723,2.144c0,0-2.001,3.819-3.634-0.433L68.516,115.356z"/>
	<path fill="#F1871A" d="M103.408,115.356c0,0-2.391-4.703-5.165-0.335c0,0-2.919-3.486-5.121,0.861c0,0-2.921-3.561-4.838,0.776
		c0,0-0.091,3.372,1.528,6.531c0,0,1.401,3.092,2.988-0.484l0.896-2.877l0.943,2.286c0,0,1.558,3.461,3.065-0.337l0.894-2.952
		l0.723,2.144c0,0,2.001,3.819,3.634-0.433L103.408,115.356z"/>
	<polygon fill="#7DBB48" points="73.189,80.052 79.43,81.394 75.289,87.051 	"/>
	<polygon fill="#7DBB48" points="83.703,80.987 90.086,80.944 87.27,87.364 	"/>
	<polygon fill="#1D672E" points="88.777,90.961 95.16,90.917 92.345,97.338 	"/>
	<polygon fill="#1D672E" points="77.579,90.844 83.962,90.8 81.146,97.221 	"/>
	<polygon fill="#7DBB48" points="93.75,80.417 100.069,79.513 98.144,86.255 	"/>
	<path fill="#1D672E" d="M48.719,62.137c0,0,4.536,8.004,15.213,12.238c0,0,2.533,30.141-13.081,43.93c0,0-9.7-11.903-12.525-26.045
		c-0.098-0.492,3.899,8.206,3.818,7.709c-0.117-0.721-4.453-12.704-4.53-13.434c-0.384-3.62-0.098-5.264,0.818-8.91
		c0.149-0.591,3.614,8.351,3.614,7.733c0-0.706-2.725-10.613-2.505-11.165c0.651-1.629,2.495-4.956,3.524-6.525
		c0.368-0.561,2.369,9.111,2.51,8.433c0.196-0.941-1.253-9.743-0.643-10.412C46.045,64.47,47.303,63.284,48.719,62.137z"/>
	<path fill="#BABABA" d="M110.296,28.666c-8.351,0-15.69,4.27-19.929,10.723c-4.239-6.453-11.579-10.723-19.929-10.723
		c-13.126,0-23.767,10.542-23.767,23.546c0,13.004,10.641,23.546,23.767,23.546c8.351,0,15.69-4.27,19.929-10.723
		c4.239,6.453,11.579,10.723,19.929,10.723c13.126,0,23.767-10.542,23.767-23.546C134.063,39.208,123.422,28.666,110.296,28.666z"/>
	<path fill="#FAFCF9" d="M53.287,51.367c0,0.921,0,1.842,0,2.764C52.719,53.594,52.72,51.903,53.287,51.367z"/>
	<path fill="#F9FCFB" d="M53.466,58.077c-0.271-0.006-0.542-0.02-0.544-0.389c-0.002-0.367,0.265-0.393,0.538-0.393
		c0.304-0.001,0.62,0.005,0.589,0.437C54.021,58.104,53.72,58.063,53.466,58.077z"/>
	<path fill="#FFFFFF" d="M110.333,32.505c-9.743,0-17.877,6.728-19.818,15.692c-1.941-8.964-10.075-15.692-19.818-15.692
		c-11.19,0-20.261,8.873-20.261,19.818c0,10.945,9.071,19.818,20.261,19.818c9.743,0,17.877-6.728,19.818-15.692
		c1.941,8.964,10.075,15.692,19.818,15.692c11.19,0,20.261-8.873,20.261-19.818C130.594,41.378,121.523,32.505,110.333,32.505z"/>
	<path stroke="#000000" stroke-miterlimit="10" d="M81.016,49.276c-0.755,1.838-2.61,3.139-4.785,3.139
		c-2.843,0-5.148-2.222-5.148-4.964c0-2.106,1.362-3.901,3.282-4.622c-1.115-0.375-2.311-0.582-3.559-0.582
		c-5.962,0-10.795,4.66-10.795,10.407s4.833,10.407,10.795,10.407c5.962,0,10.795-4.66,10.795-10.407
		C81.601,51.472,81.394,50.336,81.016,49.276z"/>
	<path stroke="#000000" stroke-miterlimit="10" d="M120.432,49.276c-0.755,1.838-2.61,3.139-4.785,3.139
		c-2.843,0-5.148-2.222-5.148-4.964c0-2.106,1.362-3.901,3.282-4.622c-1.115-0.375-2.311-0.582-3.559-0.582
		c-5.962,0-10.795,4.66-10.795,10.407s4.833,10.407,10.795,10.407c5.962,0,10.795-4.66,10.795-10.407
		C121.017,51.472,120.809,50.336,120.432,49.276z"/>
	<path fill="#F1871A" d="M90.44,57.379c0,0-0.443,4.133-6.495,10.407l6.643,6.791l6.274-7.086
		C96.862,67.491,92.728,64.17,90.44,57.379z"/>
	<path fill="#251F1E" d="M52.649,17.676c-2.362-0.664-0.221-1.476-0.221-1.476l33.511-7.603c0,0,5.684-1.033,9.005,0.148
		l33.142,7.381c0,0,3.174,0.738,0.443,1.55l-7.529,1.845l0.295,2.657c0,0,2.657,1.698,0.886,4.281l3.764,11.662
		c0,0-4.503,4.355-9.226-0.074l1.919-11.219c0,0-2.51-2.288,0-4.133l-0.295-2.436l-23.398,5.61c0,0-4.576,1.107-8.857,0
		L52.649,17.676z"/>
</g>
</svg>
