<?xml version="1.0" encoding="utf-8"?>
<!-- Generator: Adobe Illustrator 17.0.0, SVG Export Plug-In . SVG Version: 6.00 Build 0)  -->
<!DOCTYPE svg PUBLIC "-//W3C//DTD SVG 1.1//EN" "http://www.w3.org/Graphics/SVG/1.1/DTD/svg11.dtd">
<svg version="1.1" id="Layer_1" xmlns="http://www.w3.org/2000/svg" xmlns:xlink="http://www.w3.org/1999/xlink" x="0px" y="0px"
	 width="48.954px" height="48.871px" viewBox="0 0 48.954 48.871" enable-background="new 0 0 48.954 48.871" xml:space="preserve">
<path fill="#FFFFFF" d="M48.954,8.508c-0.221-0.952-0.187-1.945-0.569-2.878c-1.462-3.571-4.587-5.62-8.693-5.622
	C29.503,0.002,19.315,0.011,9.127,0C7.433-0.002,5.843,0.333,4.396,1.235C1.8,2.854,0.085,5.143,0.06,8.233
	c-0.089,10.824-0.064,21.65-0.019,32.475c0.017,4.16,4.281,8.2,8.22,8.162c10.665-0.101,21.332-0.068,31.998-0.015
	c3.26,0.016,5.553-1.476,7.333-4.042c0.88-1.269,1.233-2.692,1.364-4.195c0-0.446,0-0.892,0-1.338
	c-0.208-0.387-0.048-0.803-0.099-1.203c0-0.318,0-0.636,0-0.954c0-0.333,0-0.666,0-0.998c0-0.585,0-1.171,0-1.757
	c0-6.607,0-13.216,0-19.824c0.001-0.585,0-1.17,0-1.755c0-0.332,0-0.664,0-0.996c0-0.316,0-0.632,0-0.948
	c0.051-0.396-0.109-0.808,0.099-1.19C48.954,9.272,48.954,8.89,48.954,8.508z M44.931,17.088c-0.064,0.003-0.13,0.021-0.19,0.009
	c-1.828-0.367-2.533,0.688-3.224,2.192C38.2,26.512,34.768,33.683,31.37,40.868c-0.157,0.331-0.216,0.84-0.652,0.866
	c-0.514,0.03-0.574-0.528-0.751-0.873c-1.572-3.051-3.126-6.111-4.686-9.168c-0.142-0.278-0.289-0.554-0.475-0.912
	c-1.873,3.442-3.69,6.792-5.523,10.132c-0.187,0.34-0.277,0.879-0.801,0.832c-0.446-0.04-0.5-0.538-0.657-0.866
	c-3.632-7.602-7.265-15.204-10.859-22.824C6.646,17.38,6.303,17.03,5.549,17.13c-0.281,0.037-0.572-0.005-0.859-0.014
	C3.4,17.074,3.353,17,3.424,15.731c0.028-0.513,0.195-0.744,0.734-0.743c2.962,0.004,5.925-0.006,8.887-0.03
	c0.594-0.005,0.705,0.383,0.686,0.808c-0.022,0.499,0.179,1.141-0.581,1.333c-0.061,0.015-0.127,0.009-0.19,0.017
	c-0.524,0.07-1.295-0.239-1.517,0.162c-0.245,0.443,0.286,1.045,0.51,1.558c2.274,5.216,4.568,10.422,6.859,15.631
	c0.122,0.278,0.268,0.546,0.477,0.97c1.009-1.878,1.832-3.714,2.929-5.368c1.06-1.598,1.019-2.927,0.072-4.578
	c-1.405-2.448-2.548-5.048-3.772-7.597c-0.26-0.542-0.529-0.887-1.2-0.779c-0.841,0.136-0.91-0.42-0.904-1.065
	c0.006-0.611-0.035-1.104,0.866-1.077c2.036,0.061,4.076,0.045,6.114,0.003c0.74-0.015,0.86,0.353,0.81,0.936
	c-0.047,0.534,0.167,1.271-0.769,1.202c-0.839-0.062-0.786,0.263-0.501,0.866c0.867,1.837,1.694,3.693,2.624,5.731
	c1.187-2.141,2.3-4.149,3.414-6.157c0.16-0.289,0.046-0.407-0.254-0.412c-0.35-0.005-0.705-0.05-1.05-0.01
	c-0.965,0.111-1.218-0.394-1.192-1.243c0.018-0.573,0.196-0.901,0.826-0.901c2.07,0.002,4.141-0.012,6.211-0.025
	c0.734-0.005,0.67,0.557,0.696,1.008c0.03,0.507,0.051,1.194-0.679,1.104c-1.222-0.15-1.637,0.599-2.105,1.477
	c-1.345,2.525-2.744,5.022-4.123,7.529c-0.18,0.328-0.382,0.597-0.16,1.039c1.314,2.612,2.587,5.244,3.879,7.867
	c0.054,0.109,0.154,0.195,0.286,0.357c1.751-3.842,3.48-7.626,5.2-11.414c0.907-1.997,1.781-4.01,2.711-5.997
	c0.3-0.64,0.187-0.867-0.517-0.808c-0.285,0.024-0.573,0.001-0.86,0c-1.34-0.007-1.449-0.15-1.346-1.505
	c0.034-0.441,0.182-0.625,0.628-0.624c2.58,0.006,5.16,0.012,7.74-0.011c0.751-0.007,0.711,0.498,0.692,0.968
	C45.536,16.416,45.754,17.053,44.931,17.088z"/>
</svg>
